<svg viewBox="0 0 413 224" fill="none" xmlns="http://www.w3.org/2000/svg">
  <path d="M72.41 193.945l11.334-24.136h201.26l10.463 23.46-223.057.676z" fill="url(#Composition__paint0_linear)"/>
  <path d="M28.447 65.965L7.939 211.724a1.03 1.03 0 01-1.165.876 1.038 1.038 0 01-.881-1.147L24.076 65.386a2.197 2.197 0 012.46-1.911 2.197 2.197 0 011.91 2.46v.03z" fill="#C8C8C8"/>
  <path d="M28.563 65.811L16.87 222.98a1.099 1.099 0 01-1.177 1.017 1.098 1.098 0 01-1.01-1.165L23.89 65.491a2.342 2.342 0 012.478-2.213 2.357 2.357 0 012.2 2.496c-.006.007-.006.025-.006.037z" fill="#E1E1E1"/>
  <path d="M24.181 65.834l20.508 145.76c.08.56.597.955 1.165.875.554-.08.949-.592.881-1.147L28.545 65.255a2.197 2.197 0 00-2.46-1.91 2.197 2.197 0 00-1.904 2.49z" fill="#E1E1E1"/>
  <path d="M27.503 63.789c-.024-.019-.049-.031-.08-.05-.037-.018-.068-.037-.098-.055a2.287 2.287 0 00-.962-.271c-1.288-.08-2.398.912-2.478 2.213l-.142 2.447-2.404 19.3a19.65 19.65 0 015.665-.525l.037-.518.074.518c1.313.068 2.706.265 4.173.617l-2.75-22.086a2.158 2.158 0 00-1.035-1.59z" fill="url(#Composition__paint1_linear)"/>
  <path d="M48.307 49.81c-28.021-3.414-44.96 0-44.96 0L0 78.795s18.375 2.046 52.055 0L48.307 49.81z" fill="#F3F3F3"/>
  <path d="M0 78.793s4.746.53 13.826.776c-5.764-9.868-6.583-21.062-5.727-30.45-3.106.352-4.752.684-4.752.684L0 78.793zm60.4 120.879c-.054.225-.7 9.338-1.01 13.707-.116 1.594 1.74 2.617 2.981 1.6.012-.012.03-.024.043-.036 1.436-1.223 3.848-15.271 3.848-15.271H60.4z" fill="#DBDBDB"/>
  <path d="M60.4 199.672c-.018.079-.055.552-.2 2.474 1.405-.109 3.37-.073 5.494.542.487-2.525.572-3.016.572-3.016H60.4z" fill="url(#Composition__paint2_linear)"/>
  <path d="M284.266 199.672c.055.225.698 9.338 1.009 13.707.115 1.594-1.741 2.617-2.982 1.6-.012-.012-.03-.024-.043-.036-1.436-1.223-3.846-15.271-3.846-15.271h5.862z" fill="#DBDBDB"/>
  <path d="M278.404 199.672s.189 1.166.81 4.3c1.363-.651 3.189-1.29 5.276-1.418-.158-2.136-.193-2.797-.217-2.882h-5.869z" fill="url(#Composition__paint3_linear)"/>
  <path fill-rule="evenodd" clip-rule="evenodd" d="M74.44 199.656h-4.153l-.109 1.523c-.115 1.595 1.74 2.617 2.982 1.601a.272.272 0 01.022-.019c.007-.006.015-.012.02-.018.357-.303.79-1.484 1.237-3.087zm200.046 1.525l-.108-1.511h-4.149c.447 1.597.877 2.772 1.233 3.075a.196.196 0 00.021.018.196.196 0 01.021.018c1.242 1.017 3.098-.006 2.982-1.6z" fill="#DBDBDB"/>
  <path d="M304.711 143.443l-19.314-5.659s1.186-10.776-1.503-21.93c-2.69-11.154-11.167-8.72-24.195-6.895-13.028 1.826-72.37 3.043-80.847 3.043-4.874 0-6.462 2.945-6.937 5.452-.474-2.507-2.069-5.452-6.937-5.452-8.476 0-67.824-1.217-80.846-3.043-13.029-1.825-21.505-4.259-24.195 6.895-2.69 11.154-1.503 21.93-1.503 21.93l-19.314 5.659s-3.657 1.516-3.2 14.41c.456 12.894 3.316 41.872 16.228 38.233 0 0-.572 3.59 7.029 3.59h225.477c7.6 0 7.028-3.59 7.028-3.59 12.913 3.645 15.773-25.339 16.229-38.233.457-12.894-3.2-14.41-3.2-14.41z" fill="#A7A7A7" fill-opacity=".82"/>
  <path fill-rule="evenodd" clip-rule="evenodd" d="M90.308 148.153c9.409-.812 18.883-.645 28.349-.478 12.603.221 25.192.443 37.595-1.646 5.203-.876 10.704-2.367 14.148-6.425 4.193 4.825 11.081 6.006 17.41 6.334 5.993.31 12.018.122 17.981-.554 14.44-1.643 28.509-2.446 43.028-1.989l-16.191 11.784c-1.504.021-3.009.041-4.513.06-13.617.175-27.227.349-40.719 2.121l-.014.002c-.531.072-1.073.146-1.544.399-.56.299-.98.81-1.357 1.327-2.3 3.201-3.426 7.241-3.128 11.191.347 4.527 5.556 6.705 9.876 7.874.813.219 1.641.42 2.472.621 3.586.868 7.224 1.748 9.887 4.253-2.239.681-4.612.748-6.955.803-17.495.396-47.231-.037-64.713-.706l-41.612-34.971z" fill="url(#Composition__paint4_linear)"/>
  <path d="M37.964 144.601s1.138-2.447 3.961.572c2.824 3.018 9.177 17.835 9.627 24.638.45 6.803.9 13.473 1.345 14.118.45.639.51.833 1.54.067 1.028-.773 71.459-1.099 86.222-1.288 14.756-.194 13.044-32.205 13.044-32.205l-77.026-.967s-10.758-11.799-16.983-11.672c0 0-1.412.067-1.607.128-.194.067-17.263 5.008-17.263 5.008s-2.154.323-2.86 1.601z" fill="#DBDBDB"/>
  <path fill-rule="evenodd" clip-rule="evenodd" d="M52.956 184.013l-.06-.085c-.45-.639-.9-7.314-1.344-14.117-.134-2.014-.785-4.734-1.71-7.637 10.704-5.398 16.953-15.249 19.326-19.643 4.102 3.25 7.515 6.998 7.515 6.998l3.335.043c1.674 2.19 2.842 3.9 2.842 3.9l58.076 29.884c-4.793.061-15.484.069-27.773.077-25.56.018-58.032.04-58.727.562-.98.732-1.081.588-1.48.018z" fill="url(#Composition__paint5_linear)"/>
  <path d="M305.593 144.183s-1.138-2.447-3.962.572c-2.823 3.018-9.176 17.835-9.626 24.638-.451 6.803-.901 13.473-1.345 14.118-.45.639-.511.833-1.54.067-1.028-.773-71.737-.451-86.5-.639-14.756-.195-12.766-32.854-12.766-32.854l77.025-.967s10.759-11.799 16.984-11.672c0 0 1.412.067 1.606.128.195.067 17.264 5.008 17.264 5.008s2.154.323 2.86 1.601z" fill="#DBDBDB"/>
  <path fill-rule="evenodd" clip-rule="evenodd" d="M290.602 183.824c-.398.57-.499.713-1.48-.018-.694-.522-33.167-.545-58.727-.562-12.289-.009-22.979-.016-27.773-.077l56.741-29.872 1.336-.012s.283-.415.771-1.097l5.405-2.846s3.414-3.749 7.515-6.998c2.373 4.393 8.623 14.245 19.327 19.643-.925 2.902-1.576 5.622-1.71 7.636-.445 6.803-.895 13.479-1.345 14.118l-.06.085z" fill="url(#Composition__paint6_linear)"/>
  <path d="M52.355 168.156c-.243 5.33 1.175 14.02 1.175 14.02s1.174 1.539 3.888.274c2.714-1.266 37.624.906 66.924.724 29.3-.183 46.125.633 46.667-.183.541-.815.906-23.963-.724-30.839-1.631-6.87-92.61-2.44-93.602-2.623-.991-.182-20.166 12.84-20.707 13.205-.006 0-3.444 1.442-3.62 5.422z" fill="#C8C8C8"/>
  <path d="M53.53 182.176s1.174 1.54 3.888.274 37.624.906 66.924.724c29.3-.183 46.125.633 46.667-.183.328-.493.59-9.212.383-17.531-.882-.322-3.578-.694-11.781-.164-12.535.815-67.556 1.789-78.625 1.466-9.803-.286-20.629-3.511-27.383-2.093-.64.84-1.175 1.984-1.248 3.493-.243 5.324 1.175 14.014 1.175 14.014z" fill="#DBDBDB"/>
  <path d="M292.121 168.156c.243 5.33-1.175 14.02-1.175 14.02s-1.174 1.539-3.888.274c-2.714-1.266-37.624.906-66.924.724-29.3-.183-46.125.633-46.667-.183-.542-.815-.907-23.963.724-30.839 1.631-6.87 92.609-2.44 93.601-2.623.992-.182 20.166 12.84 20.708 13.205.006 0 3.444 1.442 3.621 5.422z" fill="#C8C8C8"/>
  <path d="M173.473 182.992c.542.816 17.361 0 46.667.183 29.299.182 64.21-1.99 66.924-.724 2.714 1.266 3.888-.274 3.888-.274s1.418-8.69 1.175-14.02c-.183-3.98-3.615-5.428-3.615-5.428a5.263 5.263 0 01-.25-.17c-11.586.474-57.376 2.306-68.53 2.02-11.148-.286-37.594-.073-46.624.31-.243 8.489.024 17.598.365 18.103z" fill="#DBDBDB"/>
  <path d="M285.494 136.933s.286 3.651-3.651 5.86c0 0-4.223 9.031-6.627 10.759 0 0-4.223 9.316-5.282 10.18-1.059.864-2.306 2.014-6.912-.481-4.613-2.494-15.365-5.379-18.822-6.243-3.456-.864-12.389-.961-5.379-3.651s43.119-18.054 46.673-16.424z" fill="url(#Composition__paint7_linear)"/>
  <path d="M288.719 133.093s-6.481 7.466-10.18 8.939c0 0-6.244 9.706-6.439 9.925 0 0-.401 6.316-2.604 12.243 0 0-.45 1.223-4.065-1.241-3.614-2.465-7.929-4.321-10.703-4.534-2.775-.213-10.126-1.965-11.781-2.129-1.661-.165-7.887-1.862-6.755-2.751 1.132-.888 7.734-9.84 8.696-11.702.961-1.868 7.156-12.407 8.549-14.555 1.4-2.148 2.228-5.172 5.526-2.97 3.298 2.209 12.133 5.781 17.251 6.487 5.118.718 15.061.006 12.505 2.288z" fill="#F3F3F3"/>
  <path d="M242.941 156.301c1.661.164 9.006 1.911 11.78 2.13 2.775.213 7.09 2.069 10.704 4.533 3.615 2.465 4.065 1.241 4.065 1.241 2.203-5.933 2.604-12.243 2.604-12.243.195-.219 6.438-9.925 6.438-9.925 3.7-1.472 10.181-8.939 10.181-8.939 1.229-1.095-.432-1.503-3.055-1.703-.56 1.101-.846 2.33-1.509 3.401a12.146 12.146 0 01-3.329 3.536c-2.671 1.874-6.115 2.604-9.316 1.971l3.651 1.753c.195.091.396.2.487.389.134.298-.067.633-.262.895l-4.15 5.574c-.213.279-.432.572-.742.736-.365.195-.803.176-1.211.134a10.216 10.216 0 01-3.523-1.029c-.852-.426-2.002-.925-2.629-.213 1.479.761 2.957 1.528 4.436 2.288.396.207.809.42 1.077.779.323.426.39.992.426 1.528a26.37 26.37 0 01-.523 7.539c-.177.822-.487 1.746-1.272 2.057-.998.389-2.002-.45-2.817-1.144-4.084-3.463-9.688-4.388-15.006-4.978-4.534-.499-9.244-.906-13.369-2.744.31.931 5.391 2.288 6.864 2.434z" fill="#DBDBDB"/>
  <path d="M205.578 79.91V57.064c-5.264 1.006-10.596 1.432-15.927.968-16.456-1.462-31.278-11.317-47.715-12.972a52.426 52.426 0 00-1.277-.097v34.956h64.919v-.01z" fill="#838383" fill-opacity=".19"/>
  <path d="M205.578 79.92V45.833a58.376 58.376 0 00-2.248-.04c-4.745.02-9.558.43-14.006 2.128-11.162 4.263-18.252 15.881-29.203 20.681-5.889 2.575-12.575 2.985-18.867 1.746-.201-.039-.394-.097-.595-.136v9.706h64.919z" fill="#838383" fill-opacity=".32"/>
  <path d="M205.903 15h-65.244v65.244h65.244V15z" stroke="#757575" stroke-opacity=".8" stroke-miterlimit="10"/>
  <path d="M189.49 36.972a6.908 6.908 0 100-13.816 6.908 6.908 0 000 13.816z" fill="#838383" fill-opacity=".12"/>
  <path d="M60.217 129.838l1.802 8.476s7.52 8.051 3.705 18.329c0 0 .846 5.616 7.096 2.963 6.249-2.647 24.26-1.588 27.65-1.904 3.39-.317 4.947-.299 3.907-1.424-1.047-1.12-44.16-26.44-44.16-26.44z" fill="url(#Composition__paint8_linear)"/>
  <path d="M56.603 125.165s4.789 8.653 8.1 10.862c0 0 4.088 10.795 4.234 11.044 0 0-.918 6.262 0 12.517 0 0 .183 1.29 4.236-.371 4.052-1.655 8.653-2.58 11.415-2.209 2.763.371 10.309.183 11.97.371 1.655.183 8.099-.182 7.18-1.29-.919-1.107-5.525-11.233-6.073-13.253-.553-2.026-4.418-13.625-5.336-16.016-.92-2.391-1.108-5.525-4.79-4.053-3.68 1.473-13.07 3.128-18.224 2.763-5.166-.365-14.738-3.128-12.712-.365z" fill="#F3F3F3"/>
  <path d="M56.603 125.163s4.789 8.653 8.1 10.862c0 0 4.088 10.795 4.234 11.045 0 0-.918 6.261 0 12.517 0 0 .183 1.29 4.236-.372 4.052-1.655 8.653-2.58 11.415-2.208 2.763.371 10.308.182 11.97.371 1.442.158 6.505-.098 7.192-.895-3.98-.578-8.209.311-12.292.085-.28-.018-.584-.042-.803-.219-.755-.59.17-1.953-.395-2.726-.317 1.588-1.759 2.879-3.372 3.018-1.101.098-2.178-.292-3.255-.529a12.066 12.066 0 00-8.154 1.126c-.67.353-1.4.791-2.13.584-.548-.152-.937-.639-1.241-1.126a10.298 10.298 0 01-1.552-4.594c-.146-1.57.225-3.243 1.29-4.406 1.034-1.138 2.574-1.649 4.034-2.123-1.302-.475-2.774-.006-4.12-.341-1.533-.383-2.64-1.789-3.12-3.298-.482-1.509-.433-3.122-.384-4.704.012-.347.024-.712.219-1.004.189-.286.505-.45.821-.578 1.68-.682 3.59-.706 5.19-1.558.287-.152.597-.475.42-.748-2.232.541-4.52.998-6.815.833-1.788-.121-3.578-.633-5.068-1.637-1.491-.998-2.672-2.507-3.116-4.247-.152-.609-.219-1.241-.438-1.826-.183-.492-.463-.943-.742-1.393a14.73 14.73 0 00-.78-1.15c-1.375 0-2.038.298-1.344 1.241z" fill="#E7E5E5"/>
  <path d="M289.553 80.066c-1.988-2.806-3.391-2.338-4.56-2.689-1.169-.35-3.507 1.403-3.857 3.04-.468 1.753-.819 1.753-.585 3.04.234 1.285 3.741 1.168 5.378 1.051 1.636-.117 6.663.936 6.663.936l4.793-5.378h-7.832z" fill="#FFE1D6"/>
  <path d="M291.654 79.248c-1.403-2.572-2.572-1.52-4.326-.819-1.753.702-4.208 2.105-4.208 2.105s-.351 1.636.818 1.987c1.169.35 4.442-1.052 5.144 1.052.584 2.104 8.3-3.507 8.3-3.507l-5.728-.818z" fill="#FFE1D6"/>
  <path d="M342.75 44.993c-5.144-.584-8.534 2.338-11.223 15.432-2.221 10.404-6.897 18.12-6.897 18.12l-31.682.585-1.987 6.313s31.447 5.962 38.228 5.143c9.235-1.286 14.145-17.068 18.705-29.46 3.039-8.884 1.87-15.314-5.144-16.133z" fill="#A4A1A0"/>
  <path d="M309.738 31.551c1.169 2.806 1.988 5.495 3.157 7.131 1.052 1.754.35 5.144-.117 6.664-.468 1.52 2.922 1.169 2.922 1.169s2.105 1.637 4.56 4.91c1.052 1.52 3.974-.35 5.845-1.052 1.987-.585 2.806-2.923 5.027-6.196 2.338-3.273 2.923-8.534 2.923-8.534l-2.923-10.99-12.743-1.051-8.651 7.95z" fill="#FFE1D6"/>
  <path d="M310.556 33.537c-3.741.818-9.937-6.78-1.053-9.703 4.092-1.286 12.626-7.599 16.835-5.729 4.208 1.87 4.676 5.144 4.676 5.144s2.338-.818 4.793 4.092c2.455 4.793-.818 15.08-.351 17.77l-5.845-4.677s2.689-3.39 1.403-6.313c-1.286-2.922-5.845-2.922-5.495.117.234 3.04-1.402 3.624-1.402 3.624s-2.689-2.455-2.105-4.442c1.052-3.624-5.027-7.131-6.43-4.91-1.169 2.338-1.753 4.326-5.026 5.027z" fill="#7A7878"/>
  <path d="M341.182 43.007h-1.052c-1.52-.35-10.873-3.39-10.873-3.39l-1.753 10.522s12.626 9.235 17.185 11.456a259.419 259.419 0 01-3.507-18.588z" fill="#FFE1D6"/>
  <path d="M340.638 42.306s3.04-.117 7.131-.117c6.898-.117 20.225 5.378 28.058 11.34 12.391 9.586 25.485 34.838 25.485 34.838s-5.027 4.793-12.977 7.715c-7.949 2.923-16.133 3.742-16.133 3.742S359.46 80.3 349.406 78.195c-10.054-2.221-16.25-9.47-16.25-9.47l7.482-26.42z" fill="#C9C9C9"/>
  <path d="M401.312 88.482c3.507 9.236 2.805 20.926 0 29.227-2.222 6.663-6.781 20.926-9.236 34.72-1.403 8.067 6.781 31.097 15.665 50.153l-9.703 5.26s-26.186-39.046-26.186-50.619c0-11.574.35-57.284.35-57.284l29.11-11.457z" fill="#A4A1A0"/>
  <path d="M407.74 202.465l5.26 9.937-12.275 7.131h-5.377l6.546-8.417-2.572-4.676 8.418-3.975z" fill="#A4A1A0"/>
  <path d="M400.373 89.77c3.507 9.235 2.338 20.692 0 29.226-2.338 8.534-24.316 32.967-25.602 39.747-2.572 13.912-12.743 47.23-12.743 47.23h-10.989s5.845-37.293 5.845-48.866c0-11.574 14.497-55.881 14.497-55.881l28.992-11.457zm-38.346 116.203l-1.403 12.625-16.601.234 7.249-5.494 2.338-7.365h8.417zM277.623 72.115l-3.975 3.274-9.82-12.041 3.975-3.274 9.82 12.041z" fill="#C9C9C9"/>
  <path d="M301.356 101.108l-3.858 3.156c-.702.585-1.754.468-2.455-.234l-23.966-29.226c-.584-.701-.467-1.754.234-2.455l3.858-3.156c.701-.585 1.754-.468 2.455.233l23.966 29.227c.584.818.467 1.87-.234 2.455zm-32.736-80.08c-11.457-17.302-29.577-25.602-40.215-18.47-10.756 7.13-10.054 26.887 1.402 44.19 11.457 17.301 29.577 25.602 40.216 18.47 10.755-7.13 10.17-26.888-1.403-44.19zm.467 39.514c-.818.585-1.753.935-2.688 1.286-8.768 2.806-22.329-4.91-31.331-18.47-9.002-13.562-10.872-28.993-4.91-36.008.585-.701 1.403-1.402 2.221-1.987 8.534-5.611 24.083 2.221 34.02 17.185 9.937 14.964 11.223 32.383 2.688 37.994z" fill="#D5D5D5"/>
  <path d="M266.397 22.547C256.46 7.583 240.912-.367 232.377 5.362c-.818.584-1.519 1.286-2.221 1.987 8.768-2.806 22.329 4.91 31.331 18.471 9.001 13.561 10.872 28.993 4.91 36.007.935-.35 1.87-.701 2.689-1.286 8.534-5.611 7.248-23.03-2.689-37.994z" fill="#C9C9C9"/>
  <path d="M229.927 46.749c-11.456-17.302-12.158-37.176-1.403-44.19l-5.377 3.507c-10.756 7.13-10.054 26.888 1.403 44.19 11.456 17.302 29.577 25.602 40.215 18.47l5.378-3.506c-10.756 7.13-28.759-1.17-40.216-18.471z" fill="#C9C9C9"/>
  <path d="M297.738 88.599s-8.651-1.637-10.521-1.17c-1.988.468-7.248 3.859-7.248 3.859l.818.467 1.871-.117-1.403 1.052 1.169.936 1.403-.351 1.753-.117-2.338 1.052 1.169.702 2.689-.351-1.754.818.702.935 6.313-2.22 3.974-1.637 4.677.935-3.274-4.793z" fill="#FFE1D6"/>
  <path d="M341.814 46.28c-4.91-1.637-8.534 2.104-8.3 15.548.117 11.573-1.52 21.394-1.52 21.394l-34.136 5.377-.702 6.664s34.136.233 40.917.935c6.78.818 8.3-20.108 9.352-29.343.819-9.353 1.169-18.354-5.611-20.576z" fill="#C9C9C9"/>
  <defs>
    <linearGradient id="Composition__paint0_linear" x1="183.937" y1="201.165" x2="183.937" y2="165.742" gradientUnits="userSpaceOnUse">
      <stop stop-color="#fff" stop-opacity="0"/>
      <stop offset="1" stop-color="#EFEFEF"/>
    </linearGradient>
    <linearGradient id="Composition__paint1_linear" x1="26.319" y1="66.749" x2="26.319" y2="94.432" gradientUnits="userSpaceOnUse">
      <stop stop-color="#AAA"/>
      <stop offset=".998" stop-color="#AAA" stop-opacity="0"/>
    </linearGradient>
    <linearGradient id="Composition__paint2_linear" x1="63.358" y1="198.878" x2="63.358" y2="203.969" gradientUnits="userSpaceOnUse">
      <stop stop-color="#464545" stop-opacity=".58"/>
      <stop offset=".998" stop-color="#464545" stop-opacity="0"/>
    </linearGradient>
    <linearGradient id="Composition__paint3_linear" x1="281.323" y1="199.051" x2="281.323" y2="205.626" gradientUnits="userSpaceOnUse">
      <stop stop-color="#464545" stop-opacity=".58"/>
      <stop offset=".998" stop-color="#464545" stop-opacity="0"/>
    </linearGradient>
    <linearGradient id="Composition__paint4_linear" x1="172.317" y1="132.989" x2="172.317" y2="175.331" gradientUnits="userSpaceOnUse">
      <stop stop-color="#fff" stop-opacity="0"/>
      <stop offset=".505" stop-color="#464545" stop-opacity=".38"/>
      <stop offset="1" stop-color="#464545" stop-opacity=".79"/>
    </linearGradient>
    <linearGradient id="Composition__paint5_linear" x1="86.153" y1="109.148" x2="106.842" y2="181.256" gradientUnits="userSpaceOnUse">
      <stop stop-color="#fff" stop-opacity="0"/>
      <stop offset="1" stop-color="#464545" stop-opacity=".87"/>
    </linearGradient>
    <linearGradient id="Composition__paint6_linear" x1="257.406" y1="108.958" x2="236.716" y2="181.067" gradientUnits="userSpaceOnUse">
      <stop stop-color="#fff" stop-opacity="0"/>
      <stop offset="1" stop-color="#464545" stop-opacity=".87"/>
    </linearGradient>
    <linearGradient id="Composition__paint7_linear" x1="258.561" y1="137.812" x2="267.204" y2="168.736" gradientUnits="userSpaceOnUse">
      <stop stop-color="#fff" stop-opacity="0"/>
      <stop offset="1" stop-color="#464545"/>
    </linearGradient>
    <linearGradient id="Composition__paint8_linear" x1="84.903" y1="137.125" x2="74.309" y2="164.14" gradientUnits="userSpaceOnUse">
      <stop stop-color="#fff" stop-opacity="0"/>
      <stop offset="1" stop-color="#464545"/>
    </linearGradient>
  </defs>
</svg>
