<svg viewBox="0 0 38 38" fill="none" xmlns="http://www.w3.org/2000/svg">
    <path d="M1 15V9m0 6v7m0-7l10.938 11.062M1 29v-7m0 7v.8A7.2 7.2 0 008.2 37v0H9m-8-8l4 4m4 4h6m-6 0l-4-4m32-10v-7.038M37 23v6m0-6L25.938 12.062M29 1h.8v0A7.2 7.2 0 0137 8.2V9m-8-8h-6m6 0l4 4m4 4v6.962M37 9l-4-4m4 24v.8a7.2 7.2 0 01-7.2 7.2v0h-.9m8.1-8l-1 .988M1 9v-.8A7.2 7.2 0 018.2 1v0h.9M1 9l4.01-3.96M22.999 1h-6.8M23 1L11.942 12.082M15 37h6.92M15 37l10.808-10.835M35 3l-2 2M3 35l5.469-5.47M3 3l2.01 2.04M35 35.5l-2.259-2.294M9.1 1h7.1M9.1 1L5.01 5.04M28.9 37h-6.98m6.98 0l3.841-3.794M5 33l3.469-3.47M33 5l-3.531 3.53M33 5L15.406 22.592M5.01 5.04l3.467 3.521M32.74 33.206l-3.466-3.52m3.466 3.52L36 29.988M18.875 19.123l3.467 3.521m-3.467-3.52l-3.466-3.521m3.466 3.52l3.531-3.53m-3.53 3.53l-3.47 3.47m10.402 3.572l-3.466-3.521m3.466 3.52l3.467 3.521m-6.933-7.041L9 36m20.275-6.315L21.92 37m-9.978-24.918l3.467 3.52m-3.467-3.52l-3.466-3.52m6.933 7.04L29 2M8.476 8.561L16.2 1m9.738 11.062l3.53-3.531m-3.53 3.53l-3.532 3.531m7.063-7.061L37 15.96m-14.594-.369L36 29.988m-24.062-3.926l3.468-3.47m-3.468 3.47l-3.47 3.469m6.938-6.939L2 9m6.469 20.53L1 22" stroke="currentColor" stroke-width="2" />
</svg>