<svg viewBox="0 0 38 38" fill="none" xmlns="http://www.w3.org/2000/svg">
  <path d="M18.853 1H7.943A6.943 6.943 0 001 7.943v0M18.853 1h9.918a6.943 6.943 0 016.943 6.943v0M18.854 1v6.943m0 0H7.942m10.91 0h10.91m5.951 0v6.943m0-6.943h-5.95M1 7.943h6.943M1 7.943v6.943m6.943-6.943v6.943m0 0H1m6.943 0h10.91M1 14.886v6.943m34.714-6.943v6.943m0-6.943h-5.95m5.95 6.943v6.942m0-6.942h-5.95m-10.91 0v-6.943m0 6.943H7.942m10.91 0h10.91M1 21.829v6.942m0-6.942h6.943m10.91-6.943h10.91m5.951 13.885v0a6.943 6.943 0 01-6.943 6.943H18.357m17.357-6.943h-5.95M1 28.771v0a6.943 6.943 0 006.943 6.943h10.414M1 28.771h6.943m10.414 0v6.943m0-6.943H7.943m10.414 0h11.406m0-20.828v6.943m-21.82 6.943v6.942m21.82-6.942v6.942" stroke="currentColor" stroke-width="2"/>
</svg>
