<svg viewBox="0 0 106 106" fill="none" xmlns="http://www.w3.org/2000/svg">
  <path fill-rule="evenodd" clip-rule="evenodd" d="M28.024 29.099v4.979h-5.253a2.524 2.524 0 000 5.047h5.253v7.572h5.185v-7.572h7.777v-5.047H33.21v-4.98a2.592 2.592 0 10-5.185 0zm11.09 15.863v7.571h-11.09V74.46c0 2.776 2.333 5.047 5.185 5.047h41.478c2.852 0 5.185-2.271 5.185-5.047V44.173c0-2.776-2.333-5.048-5.185-5.048H66.47l-4.744-5.047H46.891v10.884h-7.777zm15.913 27.916c6.403 0 11.594-5.191 11.594-11.594S61.43 49.69 55.027 49.69s-11.594 5.19-11.594 11.594c0 6.403 5.19 11.594 11.594 11.594zm-.162-5.959a5.797 5.797 0 100-11.594 5.797 5.797 0 000 11.594z" fill="currentColor"/>
</svg>
