<svg width="20" height="20" viewBox="0 0 20 20" fill="none" xmlns="http://www.w3.org/2000/svg">
    <mask id="path-1-outside-2" maskUnits="userSpaceOnUse" x="0.694336" y="2" width="17" height="16" fill="black">
        <rect fill="white" x="0.694336" y="2" width="17" height="16"/>
        <path fill-rule="evenodd" clip-rule="evenodd" d="M4.4552 4.58696V5.71429H3.26576C2.95017 5.71429 2.69434 5.97012 2.69434 6.28571C2.69434 6.60131 2.95017 6.85714 3.26576 6.85714H4.4552V8.57143H5.62912V6.85714H7.38999V5.71429H5.62912V4.58696C5.62912 4.26279 5.36633 4 5.04216 4C4.71799 4 4.4552 4.26279 4.4552 4.58696ZM6.96607 8.17857V9.89286H4.4552V14.8571C4.4552 15.4857 4.98347 16 5.62912 16H15.0204C15.6661 16 16.1943 15.4857 16.1943 14.8571V8C16.1943 7.37143 15.6661 6.85714 15.0204 6.85714H13.1598L12.0856 5.71429H8.72694V8.17857H6.96607ZM10.5693 14.5C12.0191 14.5 13.1943 13.3248 13.1943 11.875C13.1943 10.4252 12.0191 9.25 10.5693 9.25C9.11958 9.25 7.94434 10.4252 7.94434 11.875C7.94434 13.3248 9.11958 14.5 10.5693 14.5ZM10.5317 13.15C11.2565 13.15 11.8442 12.5624 11.8442 11.8375C11.8442 11.1127 11.2565 10.525 10.5317 10.525C9.80679 10.525 9.21917 11.1127 9.21917 11.8375C9.21917 12.5624 9.80679 13.15 10.5317 13.15Z"/>
    </mask>
    <path d="M4.4552 5.71429V7.01429H5.7552V5.71429H4.4552ZM4.4552 6.85714H5.7552V5.55714H4.4552V6.85714ZM4.4552 8.57143H3.1552V9.87143H4.4552V8.57143ZM5.62912 8.57143V9.87143H6.92912V8.57143H5.62912ZM5.62912 6.85714V5.55714H4.32912V6.85714H5.62912ZM7.38999 6.85714V8.15714H8.68999V6.85714H7.38999ZM7.38999 5.71429H8.68999V4.41429H7.38999V5.71429ZM5.62912 5.71429H4.32912V7.01429H5.62912V5.71429ZM6.96607 9.89286V11.1929H8.26607V9.89286H6.96607ZM6.96607 8.17857V6.87857H5.66607V8.17857H6.96607ZM4.4552 9.89286V8.59286H3.1552V9.89286H4.4552ZM13.1598 6.85714L12.2125 7.74746L12.5975 8.15714H13.1598V6.85714ZM12.0856 5.71429L13.0329 4.82397L12.6479 4.41429H12.0856V5.71429ZM8.72694 5.71429V4.41429H7.42694V5.71429H8.72694ZM8.72694 8.17857V9.47857H10.0269V8.17857H8.72694ZM5.7552 5.71429V4.58696H3.1552V5.71429H5.7552ZM3.26576 7.01429H4.4552V4.41429H3.26576V7.01429ZM3.99434 6.28571C3.99434 6.68809 3.66814 7.01429 3.26576 7.01429V4.41429C2.2322 4.41429 1.39434 5.25215 1.39434 6.28571H3.99434ZM3.26576 5.55714C3.66814 5.55714 3.99434 5.88334 3.99434 6.28571H1.39434C1.39434 7.31928 2.2322 8.15714 3.26576 8.15714V5.55714ZM4.4552 5.55714H3.26576V8.15714H4.4552V5.55714ZM5.7552 8.57143V6.85714H3.1552V8.57143H5.7552ZM5.62912 7.27143H4.4552V9.87143H5.62912V7.27143ZM4.32912 6.85714V8.57143H6.92912V6.85714H4.32912ZM7.38999 5.55714H5.62912V8.15714H7.38999V5.55714ZM6.08999 5.71429V6.85714H8.68999V5.71429H6.08999ZM5.62912 7.01429H7.38999V4.41429H5.62912V7.01429ZM4.32912 4.58696V5.71429H6.92912V4.58696H4.32912ZM5.04216 5.3C4.64836 5.3 4.32912 4.98076 4.32912 4.58696H6.92912C6.92912 3.54482 6.0843 2.7 5.04216 2.7V5.3ZM5.7552 4.58696C5.7552 4.98076 5.43596 5.3 5.04216 5.3V2.7C4.00003 2.7 3.1552 3.54482 3.1552 4.58696H5.7552ZM8.26607 9.89286V8.17857H5.66607V9.89286H8.26607ZM4.4552 11.1929H6.96607V8.59286H4.4552V11.1929ZM5.7552 14.8571V9.89286H3.1552V14.8571H5.7552ZM5.62912 14.7C5.65651 14.7 5.68527 14.7118 5.70688 14.7328C5.72897 14.7543 5.7552 14.7982 5.7552 14.8571H3.1552C3.1552 16.2363 4.29857 17.3 5.62912 17.3V14.7ZM15.0204 14.7H5.62912V17.3H15.0204V14.7ZM14.8943 14.8571C14.8943 14.7982 14.9206 14.7543 14.9427 14.7328C14.9643 14.7118 14.993 14.7 15.0204 14.7V17.3C16.351 17.3 17.4943 16.2363 17.4943 14.8571H14.8943ZM14.8943 8V14.8571H17.4943V8H14.8943ZM15.0204 8.15714C14.993 8.15714 14.9643 8.14537 14.9427 8.12433C14.9206 8.10282 14.8943 8.05892 14.8943 8H17.4943C17.4943 6.62082 16.351 5.55714 15.0204 5.55714V8.15714ZM13.1598 8.15714H15.0204V5.55714H13.1598V8.15714ZM11.1384 6.6046L12.2125 7.74746L14.107 5.96683L13.0329 4.82397L11.1384 6.6046ZM8.72694 7.01429H12.0856V4.41429H8.72694V7.01429ZM10.0269 8.17857V5.71429H7.42694V8.17857H10.0269ZM6.96607 9.47857H8.72694V6.87857H6.96607V9.47857ZM11.8943 11.875C11.8943 12.6068 11.3011 13.2 10.5693 13.2V15.8C12.7371 15.8 14.4943 14.0427 14.4943 11.875H11.8943ZM10.5693 10.55C11.3011 10.55 11.8943 11.1432 11.8943 11.875H14.4943C14.4943 9.70728 12.7371 7.95 10.5693 7.95V10.55ZM9.24434 11.875C9.24434 11.1432 9.83755 10.55 10.5693 10.55V7.95C8.40161 7.95 6.64434 9.70728 6.64434 11.875H9.24434ZM10.5693 13.2C9.83755 13.2 9.24434 12.6068 9.24434 11.875H6.64434C6.64434 14.0427 8.40161 15.8 10.5693 15.8V13.2ZM10.5442 11.8375C10.5442 11.8401 10.5439 11.8413 10.5439 11.8414C10.5438 11.8417 10.5438 11.8418 10.5437 11.842C10.5435 11.8426 10.5426 11.8443 10.5405 11.8464C10.5384 11.8485 10.5367 11.8494 10.5361 11.8496C10.5359 11.8497 10.5358 11.8497 10.5356 11.8498C10.5354 11.8498 10.5342 11.85 10.5317 11.85V14.45C11.9745 14.45 13.1442 13.2804 13.1442 11.8375H10.5442ZM10.5317 11.825C10.5342 11.825 10.5354 11.8253 10.5356 11.8253C10.5358 11.8254 10.5359 11.8254 10.5361 11.8255C10.5367 11.8257 10.5384 11.8266 10.5405 11.8287C10.5426 11.8308 10.5435 11.8325 10.5437 11.8331C10.5438 11.8333 10.5438 11.8334 10.5439 11.8336C10.5439 11.8338 10.5442 11.835 10.5442 11.8375H13.1442C13.1442 10.3947 11.9745 9.22504 10.5317 9.22504V11.825ZM10.5192 11.8375C10.5192 11.835 10.5194 11.8338 10.5194 11.8336C10.5195 11.8334 10.5195 11.8333 10.5196 11.8331C10.5199 11.8325 10.5208 11.8308 10.5228 11.8287C10.5249 11.8266 10.5266 11.8257 10.5272 11.8255C10.5274 11.8254 10.5275 11.8254 10.5278 11.8253C10.5279 11.8253 10.5291 11.825 10.5317 11.825V9.22504C9.08882 9.22504 7.91917 10.3947 7.91917 11.8375H10.5192ZM10.5317 11.85C10.5291 11.85 10.5279 11.8498 10.5278 11.8498C10.5275 11.8497 10.5274 11.8497 10.5272 11.8496C10.5266 11.8494 10.5249 11.8485 10.5228 11.8464C10.5208 11.8443 10.5199 11.8426 10.5196 11.842C10.5195 11.8418 10.5195 11.8417 10.5194 11.8414C10.5194 11.8413 10.5192 11.8401 10.5192 11.8375H7.91917C7.91917 13.2804 9.08882 14.45 10.5317 14.45V11.85Z" fill="currentColor" mask="url(#path-1-outside-2)"/>
</svg>
