<svg width="20" height="20" viewBox="0 0 20 20" fill="none" xmlns="http://www.w3.org/2000/svg">
<path d="M15.4574 9.18435L15.4682 9.126V9.06667C15.4682 7.99647 14.7408 7.03267 13.7065 6.84833C13.4307 4.90444 11.8754 3.35 9.90909 3.35C7.94281 3.35 6.3875 4.90444 6.11173 6.84833C5.07741 7.03267 4.35 7.99647 4.35 9.06667V9.126L4.36074 9.18435L5.33269 14.4641C5.36428 15.6286 6.25447 16.65 7.45455 16.65H12.3636C13.5637 16.65 14.4539 15.6286 14.4855 14.4641L15.4574 9.18435ZM9.90909 6.25C10.2649 6.25 10.6154 6.46386 10.8133 6.81667H9.00493C9.20274 6.46386 9.55324 6.25 9.90909 6.25Z" stroke="currentColor" stroke-width="1.3"/>
</svg>
