<svg viewBox="0 0 47 47" fill="none" xmlns="http://www.w3.org/2000/svg">
<path fill-rule="evenodd" clip-rule="evenodd" d="M40.4732 33.3821C39.4101 33.3821 38.5473 32.5174 38.5473 31.4562C38.5473 30.395 39.4101 29.5302 40.4732 29.5302C41.5364 29.5302 42.3992 30.395 42.3992 31.4562C42.3992 32.5174 41.5364 33.3821 40.4732 33.3821ZM23.1399 33.3821H20.1644C19.8967 33.3821 19.2881 32.6541 19.2881 31.4562C19.2881 30.2582 19.8967 29.5302 20.1644 29.5302H35.0248C34.967 29.6959 34.9343 29.8731 34.89 30.0445C34.863 30.1542 34.8264 30.2582 34.8052 30.3719C34.7378 30.7224 34.6955 31.0845 34.6955 31.4562C34.6955 31.8279 34.7378 32.1899 34.8052 32.5405C34.8264 32.6541 34.863 32.7581 34.89 32.8679C34.9343 33.0393 34.967 33.2165 35.0248 33.3821H23.1399ZM44.3251 0.641357H25.0658V25.6784H21.214V0.641357H1.95473C0.889697 0.641357 0.0288086 1.50417 0.0288086 2.56728V44.9376C0.0288086 46.0008 0.889697 46.8636 1.95473 46.8636H23.1399C24.205 46.8636 25.0658 46.0008 25.0658 44.9376V37.2339H40.4732C43.6587 37.2339 46.251 34.6416 46.251 31.4562V2.56728C46.251 1.50417 45.3901 0.641357 44.3251 0.641357Z" fill="currentColor"/>
</svg>
