<svg viewBox="0 0 38 38" fill="none" xmlns="http://www.w3.org/2000/svg">
    <path d="M37 26.686V27m-36-.314V27M19 1h-3.5M19 1h6m-6 0v6m0 30h-6.057M19 37v-6m0 6h6M15.5 1H13m2.5 0H13M1 28v-1m36 1v-1M27 1h-2M11 1h2M6 36v-4M6 2v6m26-6v6m0 28.5V32M19 7L6 20M19 7v12m0-12l13 13M6 20v12m0-12V8m0 12l-5-5m18 4L6 32m13-13l13 13M19 19v12M6 32l-5-5m31 5V20m0 12l5-5m-5-7l5-5m-5 5V8M6 8l7-7M6 8L2 4m11-3H8.2A7.2 7.2 0 001 8.2V15m36 0V6.143A5.143 5.143 0 0031.857 1v0H25m12 14v12M1 15v12m0 0v2.8A7.2 7.2 0 008.2 37h4.743M37 27v2.8a7.2 7.2 0 01-7.2 7.2H25m7-29l4-4m-4 4l-7-7m-6 30l-6.057 6M19 31l6 6" stroke="currentColor" stroke-width="2" />
</svg>
