<svg width="36" height="36" viewBox="0 0 36 36" fill="none" xmlns="http://www.w3.org/2000/svg">
<path d="M11.3095 25.9975C11.6588 25.9975 11.9881 25.8618 12.2344 25.6155L18 19.8498L23.7656 25.6155C24.0119 25.8618 24.3412 25.9975 24.6905 25.9975C25.0399 25.9975 25.3692 25.8618 25.6155 25.6155C25.8643 25.3666 26 25.0399 26 24.688C26 24.3387 25.8643 24.0094 25.6155 23.7631L19.8498 18L25.6155 12.2344C25.8618 11.9881 26 11.6588 26 11.3095C26 10.9601 25.8643 10.6309 25.618 10.3845C25.3691 10.1357 25.0399 10 24.6905 10C24.3412 10 24.0119 10.1357 23.7656 10.382L18 16.1502L12.2344 10.382C11.9855 10.1357 11.6588 10 11.3095 10C10.9601 10 10.6309 10.1357 10.3845 10.382C10.1357 10.6309 10 10.9601 10 11.3095C10 11.6588 10.1357 11.9855 10.382 12.2344L16.1477 18L10.382 23.7656C10.1357 24.0119 10 24.3412 10 24.6905C10 25.0399 10.1357 25.3692 10.3845 25.6155C10.6309 25.8618 10.9576 25.9975 11.3095 25.9975Z" fill="#242236"/>
</svg>