<svg viewBox="0 0 22 18" fill="none" xmlns="http://www.w3.org/2000/svg">
    <g>
        <path fill-rule="evenodd" clip-rule="evenodd" d="M11.2196 0C8.35812 0 5.73621 0.888021 3.81072 2.36435C1.88441 3.84129 0.618386 5.94428 0.618386 8.3337C0.618386 9.84668 1.12811 11.2841 2.04838 12.5298C1.68407 13.1739 1.24209 13.8613 0.74393 14.417L0.736296 14.4255L0.728881 14.4342C0.1366 15.1297 0.0217249 16.1011 0.48485 16.9189L0.489526 16.9269C0.884007 17.607 1.60191 18 2.3529 18L2.3633 18.0002C2.41391 18.0009 2.59475 18.0037 2.78196 17.9575C4.74883 17.5886 6.61733 16.8545 7.94777 16.2414C8.98718 16.4999 10.0817 16.6466 11.1987 16.6466C14.0602 16.6466 16.6821 15.7586 18.6076 14.2822C20.5339 12.8053 21.7999 10.7023 21.7999 8.31287C21.7999 5.92298 20.5334 3.825 18.6094 2.3533C16.6864 0.882447 14.07 0 11.2196 0ZM6.49997 7.20002C6.49997 6.70296 6.90291 6.30002 7.39997 6.30002H12.8C13.297 6.30002 13.7 6.70296 13.7 7.20002C13.7 7.69708 13.297 8.10002 12.8 8.10002H7.39997C6.90292 8.10002 6.49997 7.69708 6.49997 7.20002ZM9.19995 10.35C9.19995 9.85294 9.60289 9.44999 10.1 9.44999H15.5C15.997 9.44999 16.4 9.85294 16.4 10.35C16.4 10.8471 15.997 11.25 15.5 11.25H10.1C9.60289 11.25 9.19995 10.8471 9.19995 10.35Z" fill="currentColor"/>
    </g>
</svg>
