<svg viewBox="0 0 36 36" fill="none" xmlns="http://www.w3.org/2000/svg">
    <path d="M24.191 22.146c-.193-1.505-1.595-2.736-3.112-2.736h-.105l-2.045 3.544-.62-1.802h.318c.136 0 .247-.11.247-.246v-1.105a.247.247 0 00-.247-.246H16.6a.247.247 0 00-.247.246v1.105c0 .136.111.246.247.246h.32l-.597 1.841-.626-1.081-1.443-2.5h-.104c-1.517 0-2.918 1.229-3.114 2.735l-.234 3.457A1.308 1.308 0 0012.107 27H23.12c.757 0 1.356-.64 1.305-1.396l-.234-3.458zM13.73 15.18c.072.34.3.606.588.748.605 2.018 2 3.142 3.296 3.142 1.293 0 2.691-1.124 3.296-3.142.29-.143.517-.41.588-.748l.128-.62a1.072 1.072 0 00-.41-1.076c.65-2.95-.94-3.457-1.575-3.614-.008-.204-.1-.57-.277-.636-.562-.21-6.506-1.339-5.348 4.25a1.07 1.07 0 00-.411 1.076l.125.62z" fill="currentColor" />
</svg>
  