<svg viewBox="0 0 36 36" fill="none" xmlns="http://www.w3.org/2000/svg">
    <path fill-rule="evenodd" clip-rule="evenodd" d="m17.745 17.767-4.373-2.078v5.542a.26.26 0 0 0 .143.233l4.23 2.149v-5.846Zm.686 7.733-5.537-2.813A1.633 1.633 0 0 1 12 21.232V15.07c0-.615.345-1.178.894-1.456l4.797-2.437a1.633 1.633 0 0 1 1.48 0l4.797 2.437c.548.278.893.841.893 1.456v6.161c0 .615-.345 1.178-.893 1.456L18.43 25.5Zm.686-1.887 4.23-2.149a.261.261 0 0 0 .142-.233v-5.513l-4.372 2.052v5.843Zm3.649-9.07L18.549 12.4a.261.261 0 0 0-.237 0l-4.188 2.128 4.309 2.048 4.333-2.034Z" fill="currentColor" />
</svg>