<svg viewBox="0 0 18 20" fill="none" xmlns="http://www.w3.org/2000/svg">
  <path fill-rule="evenodd" clip-rule="evenodd" d="M13.102 3.984C12.802 2.106 11.079.667 9 .667c-2.08 0-3.802 1.44-4.102 3.317h-2.12c-1.141 0-2.074.846-2.074 1.88 0 1.034.933 1.88 2.074 1.88h12.444c1.14 0 2.074-.846 2.074-1.88 0-1.034-.933-1.88-2.074-1.88h-2.12zm-6.081 0h3.958c-.264-.792-1.05-1.366-1.98-1.366-.928 0-1.714.574-1.978 1.366z" fill="currentColor"/>
  <path d="M4.3 9.349c-1.031 0-1.83.846-1.71 1.81l.905 6.26c0 1.053.929 1.914 2.064 1.914h6.883c1.135 0 2.064-.861 2.064-1.876l.906-6.299c.12-.963-.68-1.809-1.711-1.809H4.3z" fill="currentColor" />
</svg>
