<svg viewBox="0 0 243 154" fill="none" xmlns="http://www.w3.org/2000/svg">
    <path d="M190.982 71.539c-2.407-6.661-16.806-5.684-17.584-7.882-1.516-4.85-4.547-15.765-3.334-17.281 2.515-3.145 9.005-8.768 7.564-12.529-.512-1.338-1.65-2.323-2.762-3.229a115.345 115.345 0 00-22.421-14.301c-5.608-.346-6.593 8.588-11.789 9.442-5.198.854-6.449.21-11.521-1.213-3.177-.892-8.144-2.103-9.398-5.154-1.155-2.808-1.697-6.92-3.959-8.95-1.404-1.257-3.511-1.205-5.392-1.08-5.359.358-21.907 2.437-23.21 7.647-1.038 4.15.52 6.744 2.594 12.451.823 2.266.86 4.794-.646 6.641-5.161 6.332-13.044 12.395-16.986 9.666-1.1-.762-8.568-3.804-9.866-3.478-.889.222-1.444 1.082-1.892 1.88a64.874 64.874 0 00-7.129 19.53c-.561 2.934 1.272 5.802 4.15 6.592l7.802 2.138c-.655 7.443 2.924 14.74 4.183 22.104-2.687 4.516-10.566 8.748-12.71 11.87-2.879 4.195 15.306 20.09 20.834 22.573 1.597.718 7.674-6.782 11.047-8.449 1.205-.595 18.446 4.673 23.6 8.311 1.112.785 4.363 6.27 4.723 7.372 1.463 4.477 2.773 6.315 7.346 5.19 9.02-2.22 17.927-5.959 26.451-9.628 2.619-1.128 5.652-3.004 5.141-5.809l-3.338-10.768c3.941-3.334 13.087-15.788 15.036-16.763 1.163-.582 12.147 6.446 14.298 2.275.973-1.887 10.014-26.826 9.168-29.168zM137.72 84.226c-2.962 4.413-7.93 7.067-13.159 7.874-2.217.7-4.544 1.022-6.924.815-5.731-.497-11.207-3.314-14.34-8.249-2.085-3.282-2.584-7.114-1.829-10.752.006-1.996.331-3.99 1.063-5.836.332-.837.756-1.603 1.187-2.365-.856-1.65-.224-3.667 1.331-4.646a26.035 26.035 0 014.979-2.42c.337-.262.647-.545.994-.797.849-.615 1.945-.617 2.911-.254a26.13 26.13 0 016.841-.253c2.108-.238 4.259-.103 6.246.536.5.106.998.239 1.486.414 3.586 1.28 6.445 3.808 8.514 6.972 3.589 5.49 4.482 13.327.7 18.961z" fill="#E9E9E9" />
    <path opacity=".59" d="M152.48 115.197c1.383-1.17 3.411-3.471 5.541-5.998-16.136-1.849-31.994-5.952-46.777-12.596-22.608-10.161-41.397-26.809-52.973-48.29a64.978 64.978 0 00-5.02 15.389c-.561 2.933 1.272 5.801 4.15 6.591l7.802 2.138c-.655 7.443 2.924 14.74 4.183 22.104-2.687 4.516-10.566 8.748-12.71 11.87-2.879 4.195 15.306 20.09 20.834 22.573 1.597.718 7.674-6.782 11.047-8.449 1.205-.595 18.446 4.673 23.6 8.311 1.112.785 4.363 6.27 4.723 7.372 1.463 4.477 2.773 6.315 7.346 5.19 9.02-2.22 17.927-5.959 26.451-9.628 2.619-1.128 5.652-3.004 5.141-5.809l-3.338-10.768z" fill="#C2C2C2" />
    <path d="M108.804 60.37c6.334-3.76 14.617-4.197 21.24-.858 7.494 3.777 11.433 11.989 9.342 20.208-3.655 14.369-22.696 17.451-32.577 7.51-6.991-7.035-5.422-17.747.156-25.16 1.812-2.406-2.25-4.741-4.042-2.36-6.12 8.13-7.815 19.926-1.469 28.426 4.782 6.406 12.866 9.85 20.786 9.606 8.765-.27 16.932-5.15 20.46-13.331 4.177-9.686 1.228-20.955-7.331-27.14-8.313-6.006-20.21-6.118-28.927-.942-2.588 1.537-.236 5.584 2.362 4.042z" fill="#757575" />
    <path d="M87.469 34.447c-2.768 3.322-5.986 6.717-9.898 8.688-2.997 1.51-4.265.47-7.011-.701-2.322-.989-5.177-2.474-7.76-2.493-3.44-.024-4.86 3.673-6.136 6.283a68.191 68.191 0 00-4.753 12.78c-.957 3.681-1.924 7.527.684 10.766 2.677 3.324 8.097 3.85 11.986 4.915a2593 2593 0 00-1.719-2.256c-.495 7.866 2.862 15.126 4.267 22.725l.236-1.802c-1.906 2.965-5.042 5.078-7.779 7.217-1.876 1.467-4.535 3.165-5.336 5.539-1.278 3.791 2.69 8.073 4.94 10.624 3.775 4.284 8.15 8.124 12.75 11.497 1.434 1.052 3.18 2.554 4.946 3.002 2.218.563 4.114-1.235 5.646-2.576 2.16-1.89 4.206-4.554 6.788-5.881-.53.272-.322.035.484.178 1.1.195 2.192.511 3.27.81 5.46 1.513 11.114 3.302 16.109 6.012 2.18 1.184 3.206 3.08 4.434 5.211 1.262 2.19 1.73 4.858 3.39 6.806 1.735 2.037 4.146 2.5 6.71 2.085 4.584-.742 9.18-2.502 13.519-4.11 4.925-1.825 9.834-3.808 14.619-5.977 3.059-1.385 6.476-3.686 6.328-7.457-.077-1.958-1.035-3.975-1.608-5.822l-1.841-5.939-.602 2.276c3.276-2.865 5.951-6.474 8.717-9.811 1.333-1.61 2.654-3.234 4.053-4.785.321-.357 1.326-1.079 1.479-1.551l.234-.212c-.327.252-.726.321-1.198.208.002-.013.886.279.906.288 3.158 1.559 7.168 3.393 10.747 3.388 3.117-.005 4.535-1.804 5.58-4.425a231.841 231.841 0 007.268-21.172c.658-2.264 1.915-5.344 1.351-7.748-.88-3.74-5.14-5.712-8.44-6.703-1.879-.564-3.814-.909-5.741-1.264-.974-.18-3.438-.448-3.828-.764.507.412-.33-1.66-.464-2.127a142.76 142.76 0 01-.95-3.44c-.618-2.354-1.255-4.754-1.578-7.17-.288-2.158-.236-1.949 1.06-3.378 1.78-1.963 3.651-3.906 5.081-6.149 1.072-1.68 1.944-3.659 1.701-5.69-.359-3.018-2.973-4.92-5.192-6.665-5.532-4.35-11.418-8.234-17.637-11.53-2.323-1.231-4.414-2.696-7.113-1.905-2.017.59-3.509 2.105-4.749 3.724-1.143 1.492-2.089 3.447-3.571 4.64-1.902 1.53-5.132 1.375-7.415.945-2.629-.494-5.328-1.367-7.872-2.2-3.282-1.075-4.516-2.201-5.529-5.452-.834-2.674-1.725-5.727-4.075-7.483-2.197-1.641-4.961-1.54-7.569-1.324-4.825.409-9.718 1.13-14.384 2.445-3.606 1.017-8.572 2.59-9.976 6.506-.903 2.52-.543 5.448.232 7.944 1.03 3.309 4.089 7.644 1.843 10.932-1.704 2.494 2.35 4.837 4.042 2.362 3.67-5.374-.655-10.546-1.759-15.951-.938-4.596 2.05-5.809 5.914-7.001 4.02-1.24 8.232-1.946 12.408-2.39 1.73-.184 4.18-.725 5.787-.087 2.528 1.002 2.897 5.224 3.729 7.491 1.693 4.618 6.275 6.045 10.632 7.275 4.722 1.334 10.252 3.078 15.034.86 3.643-1.691 4.551-5.756 7.506-8.096 1.977-1.567 4.47.76 6.327 1.788a115.293 115.293 0 018.736 5.356c2.777 1.877 5.535 3.845 8.085 6.023 2.546 2.174 1.991 3.598.162 6.075-2.091 2.832-6.24 5.4-6.261 9.218-.026 4.297 1.492 8.832 2.652 12.92.932 3.278 1.381 5.352 4.891 6.25 3.569.916 7.402 1.028 10.783 2.623.779.368 1.592.808 2.189 1.44.238.25.924 1.514.733.72.169.706-.244 1.822-.471 2.748-1.752 7.157-4.351 14.173-6.909 21.076-.409 1.1-.73 2.74-1.423 3.707.288-.4-.124.31-.197.347-.335.169-1.504-.066-2.014-.167-2.033-.406-3.98-1.315-5.88-2.115-1.244-.525-2.748-1.405-4.154-1.335-3.004.15-5.763 4.852-7.436 6.864-2.988 3.596-5.85 7.526-9.384 10.616-.601.526-.834 1.527-.601 2.277l1.41 4.551c.539 1.742 1.792 4.069 1.827 5.896.054 2.812-6.289 4.492-8.365 5.365-4.349 1.827-8.735 3.576-13.207 5.081-2.22.747-4.462 1.433-6.726 2.034-1.2.317-3.138 1.137-4.309.345-1.578-1.066-2.2-4.739-3.194-6.465-1.162-2.017-2.423-4.384-4.322-5.807-1.887-1.411-4.245-2.317-6.402-3.217-4.975-2.072-10.215-3.964-15.498-5.08-1.615-.341-2.98-.618-4.479.212-2.443 1.354-4.47 3.619-6.502 5.495-.35.322-2.854 2.027-2.87 2.392-.02.56.53-.293.825.205-.065-.111-.357-.144-.453-.236-.299-.29-.844-.485-1.2-.709-2.032-1.274-3.928-2.769-5.766-4.306-4.03-3.372-8.34-7.126-11.167-11.609-1.469-2.329-1.4-2.327.49-3.996 2.84-2.509 6.095-4.533 8.73-7.278.98-1.019 2.402-2.4 2.636-3.848.335-2.084-.9-4.93-1.457-6.948-1.405-5.098-3.021-10.11-2.685-15.466.064-1.015-.772-1.998-1.718-2.257L61.09 68.87c-1.79-.49-4.289-.752-5.23-2.587-.928-1.805.086-4.213.56-6.04a64.983 64.983 0 011.86-5.98 59.308 59.308 0 012.65-6.151c.27-.542 1.813-3.583 1.612-3.522.683-.208 2.542.715 3.183.942 1.19.422 2.374.878 3.526 1.395 1.867.836 3.394 1.913 5.544 1.834 6.369-.233 12.224-6.507 15.976-11.01 1.923-2.293-1.371-5.622-3.302-3.304z" fill="#757575" />
    <path d="M141.752 51.163c-1.038-.654-2.625-.252-3.201.84-.609 1.153-.268 2.504.839 3.2.246.155.49.313.729.478.187.13.578.32.704.512l-.198-.153c.068.054.136.108.204.165a18.153 18.153 0 01.983.86 19.19 19.19 0 011.727 1.842c.066.08.249.246.273.339l-.153-.198.156.21a19.44 19.44 0 012.132 3.688c.16.357-.017-.08-.033-.078.015-.001.181.463.189.487.203.545.379 1.099.533 1.659.324 1.18 1.676 2.023 2.878 1.635 1.208-.392 1.981-1.615 1.635-2.879-1.432-5.208-4.833-9.735-9.397-12.607zm9.153 26.161c3.011 0 3.017-4.68 0-4.68-3.012 0-3.016 4.68 0 4.68z" fill="#fff" />
    <path d="M115.01 112.559c-.553-5.221-11.092-7.065-11.263-8.786-.233-3.76-.484-12.153.657-13.03 2.367-1.819 8.034-4.718 7.663-7.68-.132-1.055-.777-1.965-1.417-2.814a85.444 85.444 0 00-13.61-14.262c-3.977-1.241-6.266 5.015-10.16 4.71-3.892-.305-4.679-.99-8.079-2.912-2.13-1.203-5.49-2.954-5.854-5.373-.335-2.227.003-5.283-1.266-7.143-.787-1.154-2.314-1.49-3.69-1.732-3.921-.691-16.201-2.123-18.061 1.397-1.481 2.803-.82 4.947-.337 9.422.193 1.776-.229 3.604-1.64 4.668-4.836 3.645-11.583 6.614-13.938 3.953-.658-.743-5.495-4.255-6.488-4.251-.679.003-1.23.523-1.694 1.02a48.106 48.106 0 00-8.588 12.799c-.924 2.012-.112 4.401 1.821 5.478l5.238 2.92c-1.79 5.243-.504 11.127-.9 16.653-2.734 2.775-9.155 4.427-11.25 6.295-2.815 2.51 7.463 17.171 11.003 19.937 1.024.799 6.724-3.524 9.449-4.127.973-.215 12.452 6.627 15.518 10.158.662.762 2.031 5.287 2.097 6.142.261 3.481.878 5.037 4.368 5.037 6.887-.002 13.96-1.118 20.746-2.251 2.084-.348 4.6-1.162 4.729-3.272l-.498-8.342c3.428-1.703 12.216-9.05 13.792-9.407.94-.214 7.603 6.79 9.89 4.167 1.034-1.185 11.956-17.539 11.762-19.374zm-40.588-.292c-2.913 2.653-6.959 3.684-10.867 3.34-1.72.112-3.452-.068-5.13-.638-4.037-1.371-7.481-4.368-8.863-8.475-.92-2.732-.601-5.579.587-8.064.356-1.436.944-2.814 1.797-4.014.387-.544.829-1.02 1.274-1.492-.324-1.338.487-2.679 1.78-3.109a19.255 19.255 0 014.013-.86c.288-.13.562-.28.856-.4.721-.292 1.51-.1 2.14.333 1.64.113 3.329.459 4.971 1.027 1.56.203 3.084.681 4.402 1.491.342.164.677.348.997.56 2.354 1.556 3.966 3.882 4.894 6.525 1.612 4.591.868 10.39-2.851 13.776z" fill="#E9E9E9" />
    <path opacity=".59" d="M79.566 137.176c1.203-.598 3.07-1.895 5.05-3.337-11.288-4.188-21.978-9.947-31.445-17.346-14.477-11.315-25.057-26.624-29.59-44.137a48.13 48.13 0 00-6.336 10.19c-.924 2.012-.112 4.402 1.821 5.479l5.238 2.92c-1.79 5.242-.504 11.127-.9 16.652-2.734 2.776-9.155 4.428-11.25 6.296-2.815 2.51 7.463 17.17 11.003 19.936 1.024.8 6.724-3.524 9.449-4.127.973-.215 12.452 6.628 15.518 10.159.662.761 2.031 5.286 2.097 6.142.261 3.481.878 5.037 4.368 5.037 6.887-.003 13.96-1.118 20.746-2.251 2.084-.349 4.6-1.163 4.729-3.272l-.498-8.341z" fill="#C2C2C2" />
    <path d="M57.956 90.573c5.02-1.523 10.791-.471 14.84 2.934 4.353 3.661 5.864 9.655 3.422 14.877-4.635 9.915-18.945 9.056-24.148.122-3.526-6.055-.512-13.06 4.541-17.18.988-.804.82-2.47 0-3.309-.958-.979-2.335-.793-3.31 0-5.876 4.792-9.326 13.085-6.415 20.44 2.32 5.859 7.788 10.149 13.931 11.407 6.903 1.415 13.915-.99 18.066-6.787 4.591-6.416 4.08-15.196-1.017-21.127-5.056-5.882-13.813-8.114-21.154-5.889-2.875.87-1.65 5.388 1.244 4.512z" fill="#757575" />
    <path d="M46.773 67.005c-2.592 1.897-5.623 3.95-8.85 4.526-2.19.39-3.148-1.038-4.808-2.245-1.389-1.01-3.115-2.455-4.851-2.794-2.83-.552-4.765 2.251-6.31 4.155-2.057 2.537-3.905 5.236-5.44 8.12-1.37 2.57-2.665 5.16-1.45 8.052 1.339 3.186 5.226 4.568 8.06 6.148-.36-.88-.717-1.761-1.076-2.643-1.716 5.65-.672 11.483-.983 17.274.228-.551.456-1.103.686-1.654-1.914 1.773-4.497 2.71-6.842 3.769-1.74.788-4.076 1.628-5.07 3.395-1.553 2.761.534 6.617 1.816 9.055 1.966 3.737 4.435 7.277 7.144 10.513.887 1.06 1.932 2.5 3.177 3.175 1.692.919 3.466.022 5.015-.761 1.768-.893 3.608-1.835 5.312-2.838.763-.45-.402-.395.452-.069.9.342 1.779.915 2.611 1.39 3.47 1.979 7.862 4.238 10.498 7.307 2.491 2.902 1.24 7.366 3.459 10.312 1.1 1.46 2.735 2.023 4.51 2.161 3.844.302 7.903-.265 11.715-.741 3.686-.461 7.495-.857 11.115-1.7 2.546-.594 5.189-1.951 5.657-4.772.468-2.818-.244-6.119-.414-8.964-.387.674-.772 1.347-1.16 2.02 2.912-1.525 5.52-3.675 8.152-5.624 1.164-.862 2.32-1.738 3.519-2.552.334-.227 1.233-.6 1.445-.927l.135-.072c.548-.267.13-.276-1.252-.027-.012.039.72.47.78.526 1.83 1.764 4.762 3.744 7.284 4.225 2.454.467 3.885-.793 5.2-2.629a164.23 164.23 0 009.101-14.196c.877-1.538 2.206-3.458 2.238-5.298.048-2.838-2.433-5.112-4.61-6.51-2.198-1.412-4.869-2.087-7.016-3.487.493.322.07 1.18.3.018.055-.279-.032-.686-.044-.97-.04-.96-.068-1.92-.081-2.879-.027-1.864.048-3.706.157-5.564.019-.303.06-.627.16-.914.244-.697-.584.65.071-.059.514-.555 1.381-.926 2.004-1.35 1.561-1.066 3.186-2.172 4.427-3.615 2.857-3.324 1.348-6.445-1.046-9.52a86.936 86.936 0 00-11.005-11.744c-1.49-1.316-2.673-2.571-4.773-2.54-1.576.025-2.983.768-4.209 1.691-1.172.882-2.226 2.255-3.565 2.864-1.647.747-3.84.032-5.396-.734-1.591-.783-3.166-1.715-4.672-2.65-.877-.545-2.12-1.214-2.613-2.171-.54-1.046-.328-2.638-.438-3.78-.465-4.886-2.926-6.922-7.65-7.628-3.684-.55-7.464-.931-11.19-.705-2.915.176-6.599.616-8.252 3.38-.99 1.658-1.29 3.706-1.21 5.604.098 2.408 1.583 6.134-.4 8.013-2.19 2.075 1.123 5.38 3.31 3.309 3.289-3.115 2.019-6.979 1.794-10.971-.198-3.564 1.067-4.385 4.428-4.636 3.164-.236 6.4.01 9.54.42 1.084.14 2.715.15 3.665.684 2.117 1.191 1.189 4.854 1.656 6.858.79 3.39 4.137 5.187 6.929 6.772 3.005 1.707 5.97 3.301 9.546 3.23 3.229-.063 4.925-2.501 7.356-4.18 1.818-1.254 2.52.165 3.994 1.52a85.6 85.6 0 015.5 5.525c1.691 1.86 3.407 3.79 4.846 5.853 1.41 2.019.037 2.948-1.691 4.242-2.213 1.657-4.911 2.596-5.562 5.51-.705 3.147-.447 6.634-.326 9.83.095 2.465.123 4.156 2.397 5.494 2.234 1.315 4.785 1.995 6.936 3.482.499.345 1.066.734 1.441 1.226.204.27.694 1.35.639.914-.063-.496-.057.099-.067.128-.164.458-.427.897-.651 1.328-2.502 4.82-5.611 9.384-8.653 13.875-.504.743-1.012 1.817-1.683 2.425-.28.254.02-.046.212-.025-.588-.064-1.115-.388-1.625-.664-2.015-1.093-4.314-4.032-6.733-4.085-2.355-.051-4.945 2.602-6.685 3.89-2.725 2.015-5.415 4.251-8.427 5.828-.688.36-1.204 1.241-1.16 2.02.068 1.109.133 2.217.2 3.326.072 1.218.698 3.562.28 4.709-.563 1.545-4.801 1.627-6.226 1.854-3.79.606-7.593 1.144-11.422 1.424-1.607.117-6.129 1.096-7.164-.428-.48-.707-.306-2.142-.453-2.937-.159-.86-.424-1.708-.688-2.539-1.187-3.753-3.032-5.626-6.158-7.947-3.215-2.385-6.676-4.675-10.294-6.407-3.375-1.616-5.875.173-8.936 1.873-.704.391-1.901.737-2.444 1.293l-.186.084c-.802.172-.521.339.84.499-.018.018-.58-.557-.533-.489-.95-1.408-2.374-2.616-3.406-3.993-2.329-3.103-4.753-6.541-6.105-10.206-.218-.591-.651-1.509-.514-2.178-.159.773.62-.088 1.27-.426 2.525-1.309 5.28-2.189 7.664-3.768.839-.555 1.982-1.242 2.476-2.14.77-1.401.41-3.842.377-5.376-.087-4.01-.423-7.94.76-11.835.295-.97-.19-2.15-1.075-2.643-1.654-.922-6.55-2.61-6.25-4.988.316-2.511 2.934-5.734 4.355-7.754a43.247 43.247 0 012.923-3.705c.108-.123 1.07-1.425.797-1.265.292-.172-.95-.236.375.095 3.077.768 4.665 4.403 7.907 4.931 4.73.772 9.932-2.548 13.541-5.192 2.406-1.762.074-5.825-2.361-4.041z" fill="#757575" />
    <path d="M80.738 91.654c.288.3.563.61.828.93.089.107.121.155.017.017.063.082.124.166.185.25a14.25 14.25 0 011.409 2.418c.018.038.183.422.1.222-.072-.174.049.124.06.153.037.098.074.194.109.292a14.026 14.026 0 01.645 2.403c.018.103.031.206.05.308.05.268-.026-.271.001 0 .043.441.082.879.094 1.32.025.907.779 1.778 1.734 1.735.918-.041 1.763-.763 1.735-1.734A16.217 16.217 0 0083.19 89.2c-.631-.655-1.828-.682-2.454 0-.643.703-.671 1.756.001 2.454zm4.811 18.03c2.232 0 2.236-3.469 0-3.469-2.233-.001-2.237 3.469 0 3.469z" fill="#fff" />
    <path d="M17.726 54.717c9.3 0 16.84-7.54 16.84-16.84 0-9.302-7.54-16.842-16.84-16.842-9.301 0-16.841 7.54-16.841 16.841 0 9.301 7.54 16.841 16.84 16.841zm209.483 78.712c8.233-8.232 8.233-21.579.001-29.811-8.233-8.233-21.58-8.233-29.812 0-8.232 8.232-8.232 21.579 0 29.811s21.579 8.232 29.811 0zM40.715 9.92a4.676 4.676 0 10-6.612-6.613 4.676 4.676 0 006.612 6.612zM214.65 86.68a5.852 5.852 0 10-4.479-10.814 5.853 5.853 0 004.479 10.814zM11.49 10.444a2.64 2.64 0 10-1.996-4.887 2.64 2.64 0 001.996 4.887z" fill="#E9E9E9" />
</svg>
  