<svg viewBox="0 0 74 74" fill="none" xmlns="http://www.w3.org/2000/svg">
    <path d="M16.08 32.907v3.4h29.243c3.007-5.189 8.618-8.68 15.045-8.684V22.34c0-3.492-2.848-6.34-6.34-6.34H13.6c-3.492 0-6.34 2.848-6.34 6.34v4.319h2.573c3.49-.092 6.248 2.757 6.248 6.248Z" fill="#fff" />
    <path d="M45.347 53.765H15.713v2.94c0 1.104-.919 1.93-1.93 1.93h-5.88c-1.103 0-1.93-.919-1.93-1.93v-2.94H2.48A2.47 2.47 0 0 1 0 51.284V32.815a2.47 2.47 0 0 1 2.481-2.481h7.351a2.47 2.47 0 0 1 2.481 2.481v6.432c0 .46.367.827.827.827H43.7a17.397 17.397 0 0 0-.712 4.942c0 3.19.859 6.179 2.358 8.749Z" fill="#fff" />
    <path fill-rule="evenodd" clip-rule="evenodd" d="M60.381 58.634C67.903 58.634 74 52.537 74 45.016c0-7.522-6.097-13.62-13.619-13.62-7.521 0-13.618 6.098-13.618 13.62 0 7.52 6.097 13.618 13.618 13.618Zm-6.517-20.136a1.836 1.836 0 0 0 0 2.597l3.88 3.88-3.88 3.88a1.836 1.836 0 1 0 2.597 2.596l3.88-3.88 3.88 3.88a1.836 1.836 0 1 0 2.596-2.597l-3.88-3.88 3.88-3.88a1.836 1.836 0 0 0-2.597-2.596l-3.88 3.88-3.88-3.88a1.836 1.836 0 0 0-2.596 0Z" fill="#fff" />
</svg>