<svg viewBox="0 0 24 24" fill="none" xmlns="http://www.w3.org/2000/svg">
    <path d="M13.192 6c.804 0 1.206.547 1.206 1.174 0 .783-.698 1.507-1.607 1.507-.762 0-1.206-.45-1.185-1.194 0-.625.529-1.487 1.586-1.487zm-2.474 12c-.635 0-1.1-.391-.656-2.114l.729-3.056c.126-.488.147-.684 0-.684-.19 0-1.014.337-1.502.67l-.316-.528c1.543-1.312 3.318-2.08 4.08-2.08.634 0 .74.764.423 1.938l-.834 3.211c-.148.567-.085.763.063.763.19 0 .815-.236 1.428-.725l.36.489C12.99 17.412 11.352 18 10.718 18z" fill="currentColor" />
</svg>
  