<svg viewBox="0 0 38 38" fill="none" xmlns="http://www.w3.org/2000/svg">
    <path d="M34.99 3.5l-6.054 6.054M8.547 29.953L13.5 25M1 12.5L13.5 25m0 0l10.29-10.297M14 35.405L29.5 20.5M1 22.405L15.595 37m6.783 0l1.973-1.973L29 30.5M7.262 8.534l5.75 5.6m-5.75-5.6L3 4.272m4.262 4.262L14.796 1m3.966 18.735l-5.75-5.6m10.779.568L29.5 20.5m-5.71-5.797l5.146-5.15M34.378 25L29.5 20.5m4.878 4.5L37 27.622M34.378 25L29 30.5m0 0l4.5 4.5M28.936 9.554L37 17.618m-23.988-3.484L26.212 1m0 0H9a8 8 0 00-8 8v20a8 8 0 008 8h20a8 8 0 008-8V9a8 8 0 00-8-8h-2.787z" stroke="currentColor" stroke-width="2" />
</svg>
