<svg viewBox="0 0 36 36" fill="none" xmlns="http://www.w3.org/2000/svg">
    <path d="M9.23 12.68a2.722 2.722 0 012.618-1.678h12.21a2.757 2.757 0 012.63 1.617.49.49 0 01-.26.754l-8.098 4.22a.675.675 0 01-.671 0l-8.203-4.256a.428.428 0 01-.226-.657zm17.67 9.298a2.737 2.737 0 01-2.745 2.312H11.84a2.772 2.772 0 01-2.74-2.057 2.815 2.815 0 01-.1-.719V15.65c0-.507.316-.694.772-.46 2.55 1.326 5.097 2.655 7.643 3.986a1.11 1.11 0 001.13 0 995.475 995.475 0 017.61-3.95.877.877 0 01.23-.094.427.427 0 01.564.457v5.074c.02.439.003.879-.05 1.315z" fill="currentColor" />
</svg>
  