<svg viewBox="0 0 49 48" fill="none" xmlns="http://www.w3.org/2000/svg">
<path fill-rule="evenodd" clip-rule="evenodd" d="M48.0033 24C48.0033 37.2567 37.2567 48 24 48C10.7466 48.0033 0 37.2567 0 24C0 10.7466 10.7466 0 24 0C37.2567 0 48.0033 10.7466 48.0033 24Z" fill="url(#paint0_linear_neutral)"/>
<path fill-rule="evenodd" clip-rule="evenodd" d="M40.0139 11.9047C40.0139 17.9223 32.8451 22.7986 23.9994 22.7986C15.1605 22.7986 7.98828 17.919 7.98828 11.9047C7.98828 5.88717 15.1605 1.01086 23.9994 1.01086C32.8417 1.01086 40.0139 5.89052 40.0139 11.9047Z" fill="url(#paint1_radial_neutral)"/>
<path fill-rule="evenodd" clip-rule="evenodd" d="M6.59961 34.6529C6.59961 27.6514 14.3943 21.9752 23.9997 21.9752C33.6084 21.9752 41.4031 27.6514 41.4031 34.6529C41.4031 41.6544 33.6117 47.3273 23.9997 47.3273C14.391 47.3273 6.59961 41.6511 6.59961 34.6529Z" fill="url(#paint2_radial_neutral)"/>
<path fill-rule="evenodd" clip-rule="evenodd" d="M18.8992 18.1297C18.8992 19.455 17.8282 20.5294 16.4995 20.5294C15.1742 20.5294 14.0999 19.455 14.0999 18.1297C14.0999 16.8044 15.1775 15.73 16.4995 15.73C17.8282 15.73 18.8992 16.8044 18.8992 18.1297Z" fill="url(#paint3_radial_neutral)"/>
<path fill-rule="evenodd" clip-rule="evenodd" d="M33.903 18.1697C33.903 19.495 32.8253 20.5694 31.5 20.5694C30.1747 20.5694 29.1003 19.495 29.1003 18.1697C29.1003 16.8443 30.1747 15.77 31.5 15.77C32.8253 15.77 33.903 16.8443 33.903 18.1697Z" fill="url(#paint4_radial_neutral)"/>
<rect x="20.0811" y="30.7904" width="8.03235" height="2.00809" rx="0.834896" fill="url(#paint5_radial_neutral)"/>
<defs>
<linearGradient id="paint0_linear_neutral" x1="24.0021" y1="-0.14987" x2="24.0021" y2="42.7422" gradientUnits="userSpaceOnUse">
<stop stop-color="#FFD712"/>
<stop offset="1" stop-color="#F6911E"/>
</linearGradient>
<radialGradient id="paint1_radial_neutral" cx="0" cy="0" r="1" gradientUnits="userSpaceOnUse" gradientTransform="translate(24.0011 1.48451) rotate(90) scale(21.3141 56.2923)">
<stop stop-color="#FFFDD0"/>
<stop offset="0.566936" stop-color="#FFCD2D"/>
<stop offset="0.761186" stop-color="#FFC01F"/>
<stop offset="1" stop-color="#FAB01A"/>
</radialGradient>
<radialGradient id="paint2_radial_neutral" cx="0" cy="0" r="1" gradientUnits="userSpaceOnUse" gradientTransform="translate(24.4863 47.8378) rotate(-90) scale(24.8108 52.4765)">
<stop stop-color="#FEBF26"/>
<stop offset="0.28195" stop-color="#FF9B16"/>
<stop offset="0.542043" stop-color="#F89900"/>
<stop offset="0.970775" stop-color="#FAB119"/>
</radialGradient>
<radialGradient id="paint3_radial_neutral" cx="0" cy="0" r="1" gradientUnits="userSpaceOnUse" gradientTransform="translate(16.4997 18.1294) scale(2.40003)">
<stop offset="0.129" stop-color="#442914"/>
<stop offset="0.4659" stop-color="#3D230F"/>
<stop offset="0.9452" stop-color="#2B1302"/>
<stop offset="1" stop-color="#281100"/>
</radialGradient>
<radialGradient id="paint4_radial_neutral" cx="0" cy="0" r="1" gradientUnits="userSpaceOnUse" gradientTransform="translate(31.5024 18.1693) scale(2.40028)">
<stop offset="0.129" stop-color="#442914"/>
<stop offset="0.4659" stop-color="#3D230F"/>
<stop offset="0.9452" stop-color="#2B1302"/>
<stop offset="1" stop-color="#281100"/>
</radialGradient>
<radialGradient id="paint5_radial_neutral" cx="0" cy="0" r="1" gradientUnits="userSpaceOnUse" gradientTransform="translate(24.0975 31.7943) scale(4.01679 1.0042)">
<stop offset="0.129" stop-color="#442914"/>
<stop offset="0.4659" stop-color="#3D230F"/>
<stop offset="0.9452" stop-color="#2B1302"/>
<stop offset="1" stop-color="#281100"/>
</radialGradient>
</defs>
</svg>
