<svg viewBox="0 0 49 48" fill="none" xmlns="http://www.w3.org/2000/svg">
<path fill-rule="evenodd" clip-rule="evenodd" d="M48.0033 24C48.0033 37.2567 37.2567 48 24 48C10.7466 48.0033 0 37.2567 0 24C0 10.7466 10.7466 0 24 0C37.2567 0 48.0033 10.7466 48.0033 24Z" fill="url(#paint0_linear_sad)"/>
<path fill-rule="evenodd" clip-rule="evenodd" d="M40.0139 11.9047C40.0139 17.9223 32.8451 22.7986 23.9994 22.7986C15.1605 22.7986 7.98828 17.919 7.98828 11.9047C7.98828 5.88717 15.1605 1.01086 23.9994 1.01086C32.8417 1.01086 40.0139 5.89052 40.0139 11.9047Z" fill="url(#paint1_radial_sad)"/>
<path fill-rule="evenodd" clip-rule="evenodd" d="M6.59961 34.6529C6.59961 27.6514 14.3943 21.9752 23.9997 21.9752C33.6084 21.9752 41.4031 27.6514 41.4031 34.6529C41.4031 41.6544 33.6117 47.3273 23.9997 47.3273C14.391 47.3273 6.59961 41.6511 6.59961 34.6529Z" fill="url(#paint2_radial_sad)"/>
<path d="M11.5599 35.861C11.4327 35.861 11.3022 35.8343 11.175 35.7774C10.7064 35.5665 10.5023 35.0143 10.7131 34.5457C13.0793 29.3414 18.2937 25.9745 24 25.9745C29.7029 25.9745 34.9206 29.3381 37.2868 34.5457C37.4977 35.0143 37.2935 35.5632 36.825 35.7774C36.3564 35.9916 35.8042 35.7841 35.5933 35.3155C33.5284 30.7705 28.9767 27.8354 23.9966 27.8354C19.0199 27.8354 14.4683 30.7705 12.4033 35.3155C12.2493 35.6602 11.9146 35.861 11.5599 35.861Z" fill="url(#paint3_radial_sad)"/>
<path fill-rule="evenodd" clip-rule="evenodd" d="M18.8997 18.1697C18.8997 19.495 17.8287 20.5694 16.5 20.5694C15.1747 20.5694 14.1003 19.495 14.1003 18.1697C14.1003 16.8443 15.178 15.77 16.5 15.77C17.8287 15.77 18.8997 16.8443 18.8997 18.1697Z" fill="url(#paint4_radial_sad)"/>
<path fill-rule="evenodd" clip-rule="evenodd" d="M33.9035 18.1696C33.9035 19.4949 32.8258 20.5692 31.5005 20.5692C30.1752 20.5692 29.1008 19.4949 29.1008 18.1696C29.1008 16.8442 30.1752 15.7699 31.5005 15.7699C32.8258 15.7699 33.9035 16.8442 33.9035 18.1696Z" fill="url(#paint5_radial_sad)"/>
<defs>
<linearGradient id="paint0_linear_sad" x1="24.0021" y1="-0.14987" x2="24.0021" y2="42.7422" gradientUnits="userSpaceOnUse">
<stop stop-color="#FF8412"/>
<stop offset="1" stop-color="#FD6F1F"/>
</linearGradient>
<radialGradient id="paint1_radial_sad" cx="0" cy="0" r="1" gradientUnits="userSpaceOnUse" gradientTransform="translate(24.0011 1.48451) rotate(90) scale(21.3141 56.2923)">
<stop stop-color="#FFE9D0"/>
<stop offset="0.549735" stop-color="#FF923A"/>
<stop offset="0.761186" stop-color="#FE7B17"/>
<stop offset="1" stop-color="#FE791A"/>
</radialGradient>
<radialGradient id="paint2_radial_sad" cx="0" cy="0" r="1" gradientUnits="userSpaceOnUse" gradientTransform="translate(24.4863 47.8378) rotate(-90) scale(24.8108 52.4765)">
<stop offset="0.0201372" stop-color="#FE9C38"/>
<stop offset="0.28195" stop-color="#FD7C25"/>
<stop offset="0.542043" stop-color="#FE771D"/>
<stop offset="0.970775" stop-color="#FE791A"/>
</radialGradient>
<radialGradient id="paint3_radial_sad" cx="0" cy="0" r="1" gradientUnits="userSpaceOnUse" gradientTransform="translate(24.0008 30.9199) scale(10.0795)">
<stop offset="0.129" stop-color="#442914"/>
<stop offset="0.4659" stop-color="#3D230F"/>
<stop offset="0.9452" stop-color="#2B1302"/>
<stop offset="1" stop-color="#281100"/>
</radialGradient>
<radialGradient id="paint4_radial_sad" cx="0" cy="0" r="1" gradientUnits="userSpaceOnUse" gradientTransform="translate(16.5001 18.1693) scale(2.40003)">
<stop offset="0.129" stop-color="#442914"/>
<stop offset="0.4659" stop-color="#3D230F"/>
<stop offset="0.9452" stop-color="#2B1302"/>
<stop offset="1" stop-color="#281100"/>
</radialGradient>
<radialGradient id="paint5_radial_sad" cx="0" cy="0" r="1" gradientUnits="userSpaceOnUse" gradientTransform="translate(31.5028 18.1692) scale(2.40028)">
<stop offset="0.129" stop-color="#442914"/>
<stop offset="0.4659" stop-color="#3D230F"/>
<stop offset="0.9452" stop-color="#2B1302"/>
<stop offset="1" stop-color="#281100"/>
</radialGradient>
</defs>
</svg>
