<svg viewBox="0 0 36 36" fill="none" xmlns="http://www.w3.org/2000/svg">
    <path d="M28.347 13.94c-.598-2.982-2.737-4.904-5.49-4.904-1.541 0-3.208.629-4.84 1.815C16.37 9.629 14.702 9 13.144 9c-2.754 0-4.91 1.94-5.49 4.959-.87 4.473 1.92 10.42 10.093 13.654a.733.733 0 0 0 .544 0c8.154-3.306 10.927-9.235 10.057-13.672Z" fill="#fff" />
    <path d="M26.87 14.57c-.514-2.556-2.346-4.203-4.707-4.203-1.32 0-2.75.539-4.148 1.555-1.413-1.047-2.842-1.586-4.178-1.586-2.361 0-4.21 1.663-4.707 4.25-.745 3.835 1.647 8.932 8.652 11.704a.628.628 0 0 0 .466 0c6.99-2.834 9.367-7.915 8.621-11.72Z" fill="currentColor" />
    <path name="border" d="m26.87 14.57.686-.134v-.003l-.687.138Zm-8.855-2.648-.416.563.412.305.416-.302-.412-.566ZM9.13 14.586l.688.134v-.002l-.688-.132Zm8.652 11.704.258-.65v-.001l-.258.65Zm.466 0 .258.65.005-.002-.263-.648Zm9.307-11.857c-.567-2.83-2.647-4.766-5.392-4.766v1.4c1.976 0 3.562 1.36 4.02 3.641l1.372-.275Zm-5.392-4.766c-1.51 0-3.08.613-4.56 1.689l.824 1.132c1.316-.957 2.604-1.421 3.736-1.421v-1.4Zm-3.731 1.693c-1.497-1.11-3.07-1.724-4.595-1.724v1.4c1.146 0 2.432.464 3.762 1.449l.833-1.125Zm-4.595-1.724c-2.748 0-4.844 1.954-5.394 4.818l1.375.264c.444-2.31 2.045-3.682 4.019-3.682v-1.4Zm-5.394 4.817c-.827 4.256 1.858 9.63 9.082 12.488l.515-1.302c-6.787-2.686-8.886-7.507-8.222-10.92l-1.375-.266Zm9.081 12.488c.154.06.319.095.491.095v-1.4c.008 0 .015 0 .02.002l.005.001-.516 1.302Zm.491.095c.173 0 .338-.035.491-.096l-.516-1.3.006-.002a.104.104 0 0 1 .02-.002v1.4Zm.496-.098c7.203-2.92 9.873-8.275 9.045-12.502l-1.374.27c.663 3.38-1.42 8.188-8.197 10.935l.526 1.298Z" fill="currentColor" />
</svg>