<svg viewBox="0 0 21 21" fill="none" xmlns="http://www.w3.org/2000/svg">
    <path d="M6 12.375c0-.31.252-.563.563-.563h7.875a.562.562 0 1 1 0 1.126H6.561A.562.562 0 0 1 6 12.374ZM6 9c0-.31.252-.563.563-.563h7.875a.562.562 0 1 1 0 1.126H6.561A.563.563 0 0 1 6 9Z" fill="currentColor" />
    <path fill-rule="evenodd" clip-rule="evenodd" d="M8.813 10.313a1.313 1.313 0 1 0 0-2.626 1.313 1.313 0 0 0 0 2.625Zm3.375 3.375a1.312 1.312 0 1 0 0-2.625 1.312 1.312 0 0 0 0 2.624Z" fill="currentColor" />
</svg>