<svg viewBox="0 0 24 24" fill="none" xmlns="http://www.w3.org/2000/svg">
    <path d="m16.6 10.047.49-.096V9.95l-.49.098Zm-4.592-1.373-.297.402.295.218.296-.216-.293-.404Zm-4.606 1.381.49.096v-.001l-.49-.095Zm4.486 6.069.184-.465-.184.465Zm.241 0 .185.465.003-.002-.188-.463Zm4.96-6.175c-.304-1.521-1.431-2.581-2.93-2.581v1c.95 0 1.723.648 1.95 1.778l.98-.197Zm-2.93-2.581c-.82 0-1.661.332-2.445.902l.588.808c.667-.484 1.307-.71 1.857-.71v-1Zm-1.853.904c-.793-.587-1.636-.92-2.464-.92v1c.557 0 1.196.225 1.869.724l.595-.804Zm-2.464-.92c-1.5 0-2.636 1.07-2.931 2.609l.982.189c.22-1.144 1.001-1.798 1.949-1.798v-1ZM6.911 9.96c-.445 2.29 1.005 5.13 4.793 6.629l.368-.93c-3.477-1.376-4.508-3.821-4.18-5.508l-.981-.191Zm4.792 6.629a.838.838 0 0 0 .306.059v-1c.027 0 .05.005.063.011l-.369.93Zm.306.059a.82.82 0 0 0 .305-.06l-.369-.929a.176.176 0 0 1 .063-.011v1Zm.308-.06c3.776-1.532 5.219-4.362 4.773-6.637l-.981.193c.327 1.67-.695 4.109-4.168 5.516l.376.927Z" fill="#000" />
</svg>