<svg viewBox="0 0 38 38" fill="none" xmlns="http://www.w3.org/2000/svg">
    <path d="M19.514 15.4l-6.171-6.171m6.171 6.171l-6.171 6.171m6.171-6.171l8.229-8.229m-14.4 2.058L5.629 1.514m7.714 7.715l6.171-6.172M21.571 1l-2.057 2.057m-6.171 18.514L1 9.23m12.343 12.34l6.171 6.172M1 9.229V8.2v0A7.2 7.2 0 018.2 1h9.257M1 9.229V29.8A7.2 7.2 0 008.2 37h21.6a7.2 7.2 0 007.2-7.2v0V6.143A5.143 5.143 0 0031.857 1v0m-7.2 0h7.2m0 0h-14.4m15.943.514l-5.657 5.657m0 0l6.171 6.172M37 16.429l-3.086-3.086m0 0l-6.171 6.171m-8.229 8.229l-6.171 6.171m6.171-6.171l8.229-8.229m-14.4 14.4L1 21.571m12.343 12.343L16.429 37m11.314-17.486l6.171 6.172m0 0L22.6 37m11.314-11.314L37 28.77M19.514 3.057L17.457 1" stroke="currentColor" stroke-width="2" />
</svg>
