<svg width="20" height="20" viewBox="0 0 20 20" fill="none" xmlns="http://www.w3.org/2000/svg">
<path d="M15.9991 3.49872H14.2839V2.72685C14.2839 2.47712 14.0131 2.36362 13.7649 2.36362H12.4334C12.1175 1.45552 11.3276 1.00147 10.4249 1.00147C9.53208 0.967706 8.72004 1.5184 8.41632 2.36362H7.10739C6.85915 2.36362 6.6109 2.47712 6.6109 2.72685V3.49872H4.89571C3.8793 3.50963 3.04777 4.31622 3 5.3376V15.1675C3 16.1664 3.90271 16.8929 4.89571 16.8929H15.9991C16.9921 16.8929 17.8948 16.1664 17.8948 15.1675V5.33765C17.847 4.31622 17.0155 3.50963 15.9991 3.49872ZM7.51357 3.27172H8.75481C8.97148 3.24513 9.14552 3.07931 9.18362 2.86308C9.31727 2.27758 9.82789 1.85729 10.4249 1.84148C11.0163 1.85951 11.5192 2.2811 11.6435 2.86308C11.684 3.08678 11.8695 3.25473 12.0949 3.27172H13.3812V5.08792H7.51357V3.27172ZM16.9921 15.1675C16.9921 15.667 16.4956 15.9848 15.9991 15.9848H4.89571C4.39921 15.9848 3.90271 15.667 3.90271 15.1675V5.33765C3.94876 4.81777 4.37692 4.41638 4.89571 4.40687H6.61085V5.56469C6.6347 5.81907 6.8537 6.00936 7.10735 5.99606H13.7648C14.0231 6.01027 14.249 5.82259 14.2839 5.56469V4.40682H15.999C16.5178 4.41638 16.946 4.81772 16.992 5.3376L16.9921 15.1675Z" fill="currentColor"/>
<path d="M8.70961 12.208C8.54032 12.0285 8.25929 12.0183 8.07769 12.1853L6.63334 13.5701L6.02401 12.9344C5.85473 12.7549 5.57369 12.7448 5.3921 12.9117C5.21728 13.096 5.21728 13.3859 5.3921 13.5701L6.31736 14.5236C6.39745 14.6138 6.51312 14.6637 6.6333 14.6598C6.75235 14.6581 6.86591 14.6092 6.94923 14.5236L8.70952 12.8436C8.88403 12.6826 8.8957 12.4097 8.73557 12.2342C8.72736 12.225 8.71868 12.2163 8.70961 12.208Z" fill="currentColor"/>
<path d="M15.1866 13.1836H9.99603C9.74675 13.1836 9.54468 13.3869 9.54468 13.6376C9.54468 13.8884 9.74675 14.0917 9.99603 14.0917H15.1866C15.4359 14.0917 15.638 13.8884 15.638 13.6376C15.638 13.3869 15.4359 13.1836 15.1866 13.1836Z" fill="currentColor"/>
<path d="M8.70961 7.51655C8.54032 7.33705 8.25929 7.32692 8.07769 7.49387L6.63334 8.8787L6.02401 8.24302C5.85473 8.06351 5.57369 8.05338 5.3921 8.22033C5.21728 8.40458 5.21728 8.69446 5.3921 8.8787L6.31736 9.83221C6.39745 9.92242 6.51313 9.9723 6.6333 9.96844C6.75235 9.96674 6.86591 9.91777 6.94923 9.83221L8.70952 8.15224C8.88404 7.9912 8.8957 7.71831 8.73557 7.5428C8.72736 7.53363 8.71868 7.5249 8.70961 7.51655Z" fill="currentColor"/>
<path d="M15.1866 8.48828H9.99603C9.74675 8.48828 9.54468 8.69156 9.54468 8.94233C9.54468 9.1931 9.74675 9.39638 9.99603 9.39638H15.1866C15.4359 9.39638 15.638 9.1931 15.638 8.94233C15.638 8.69156 15.4359 8.48828 15.1866 8.48828Z" fill="currentColor"/>
</svg>
