<svg viewBox="0 0 26 26" fill="none" xmlns="http://www.w3.org/2000/svg">
    <path d="M8.168 18.776a.94.94 0 00.668-.276L13 14.336l4.164 4.164a.94.94 0 00.668.276.94.94 0 00.668-.276.938.938 0 00.278-.67.933.933 0 00-.278-.667L14.336 13 18.5 8.836a.941.941 0 00.002-1.336.94.94 0 00-.67-.277.94.94 0 00-.668.276L13 11.664 8.836 7.5a.942.942 0 00-.668-.276.94.94 0 00-.668.276.94.94 0 00-.278.67c0 .252.098.488.276.667L11.662 13l-4.164 4.165a.94.94 0 00-.276.668c0 .252.098.49.278.668a.936.936 0 00.668.275z" fill="currentColor"/>
</svg>
