<svg viewBox="0 0 24 24" fill="none" xmlns="http://www.w3.org/2000/svg">
    <path d="M11.994 6A5.997 5.997 0 0 0 6 12c0 3.312 2.682 6 5.994 6A6.003 6.003 0 0 0 18 12c0-3.312-2.688-6-6.006-6Zm4.158 3.6h-1.77a9.393 9.393 0 0 0-.828-2.136A4.818 4.818 0 0 1 16.152 9.6ZM12 7.224c.498.72.888 1.518 1.146 2.376h-2.292A8.452 8.452 0 0 1 12 7.224ZM7.356 13.2A4.945 4.945 0 0 1 7.2 12c0-.414.06-.816.156-1.2h2.028A9.91 9.91 0 0 0 9.3 12c0 .408.036.804.084 1.2H7.356Zm.492 1.2h1.77c.192.75.468 1.47.828 2.136A4.792 4.792 0 0 1 7.848 14.4Zm1.77-4.8h-1.77a4.792 4.792 0 0 1 2.598-2.136A9.392 9.392 0 0 0 9.618 9.6ZM12 16.776a8.452 8.452 0 0 1-1.146-2.376h2.292A8.452 8.452 0 0 1 12 16.776Zm1.404-3.576h-2.808A8.828 8.828 0 0 1 10.5 12c0-.408.042-.81.096-1.2h2.808c.054.39.096.792.096 1.2 0 .408-.042.804-.096 1.2Zm.15 3.336a9.39 9.39 0 0 0 .828-2.136h1.77a4.818 4.818 0 0 1-2.598 2.136Zm1.062-3.336A9.91 9.91 0 0 0 14.7 12a9.91 9.91 0 0 0-.084-1.2h2.028c.096.384.156.786.156 1.2 0 .414-.06.816-.156 1.2h-2.028Z" fill="currentColor" />
</svg>