<svg viewBox="0 0 13 13" fill="none" xmlns="http://www.w3.org/2000/svg">
    <path fill-rule="evenodd" clip-rule="evenodd" d="M8.362 0h3.941a.7.7 0 0 1 .698.697V4.63a.7.7 0 0 1-.698.697.7.7 0 0 1-.698-.697V2.39L5.064 8.905a.695.695 0 0 1-.986 0 .692.692 0 0 1 0-.983l6.528-6.529H8.362a.7.7 0 0 1-.698-.696A.7.7 0 0 1 8.362 0Zm1.436 7.153a.7.7 0 0 1 .698-.696c.383 0 .698.314.712.696v2.814a3.037 3.037 0 0 1-3.038 3.032H3.038A3.037 3.037 0 0 1 0 9.967V4.845a3.037 3.037 0 0 1 3.038-3.032h2.805a.7.7 0 0 1 .698.696.7.7 0 0 1-.698.697H3.038A1.63 1.63 0 0 0 1.41 4.831v5.122a1.63 1.63 0 0 0 1.628 1.626H8.17a1.63 1.63 0 0 0 1.628-1.626v-2.8Z" fill="#000" />
</svg>