<svg viewBox="0 0 28 28" fill="none" xmlns="http://www.w3.org/2000/svg">
  <path fill-rule="evenodd" clip-rule="evenodd" d="M19.25 10.356h-2.021l-.994-1.533a.58.58 0 00-.485-.267h-3.5a.58.58 0 00-.485.267l-.994 1.533H8.75c-.966 0-1.75.806-1.75 1.8v5.489c0 .994.784 1.8 1.75 1.8h10.5c.966 0 1.75-.806 1.75-1.8v-5.49c0-.993-.784-1.8-1.75-1.8zm-2.139 4.422a3.111 3.111 0 11-6.222 0 3.111 3.111 0 016.222 0z" fill="currentColor"/>
  <path d="M14 16.334a1.556 1.556 0 100-3.111 1.556 1.556 0 000 3.11z" fill="currentColor"/>
</svg>
