<svg width="20" height="20" viewBox="0 0 20 20" fill="none" xmlns="http://www.w3.org/2000/svg">
<path fill-rule="evenodd" clip-rule="evenodd" d="M5.65 5.55469C5.29101 5.55469 5 5.8457 5 6.20469C5 6.56367 5.29101 6.85469 5.65 6.85469H14.35C14.709 6.85469 15 6.56367 15 6.20469C15 5.8457 14.709 5.55469 14.35 5.55469H5.65ZM5 10.0936C5 9.7346 5.29101 9.44358 5.65 9.44358H14.35C14.709 9.44358 15 9.7346 15 10.0936C15 10.4526 14.709 10.7436 14.35 10.7436H5.65C5.29101 10.7436 5 10.4526 5 10.0936ZM5 13.9825C5 13.6235 5.29101 13.3325 5.65 13.3325H14.35C14.709 13.3325 15 13.6235 15 13.9825C15 14.3414 14.709 14.6325 14.35 14.6325H5.65C5.29101 14.6325 5 14.3414 5 13.9825Z" fill="currentColor"/>
</svg>
