<svg viewBox="0 0 26 26" fill="none" xmlns="http://www.w3.org/2000/svg">
    <path fill-rule="evenodd" clip-rule="evenodd" d="M13.812 6.806l5.835 4.488a.762.762 0 01-.702 1.326l-5.482-4.26a.283.283 0 00-.35.002L7.76 12.62a.76.76 0 01-.853-.256.763.763 0 01.14-1.07l1.182-.91V7.996h1.526V9.21l3.125-2.404a.764.764 0 01.931 0zM8.202 18.49v-4.92l5.09-4.052 5.2 4.044v4.929a.383.383 0 01-.38.38H15.04v-4.034a.383.383 0 00-.381-.382h-2.624a.383.383 0 00-.38.382v4.035H8.582c-.101 0-.2-.04-.27-.111a.384.384 0 01-.112-.27z" fill="currentColor" />
</svg>
  