<svg viewBox="0 0 49 49" fill="none" xmlns="http://www.w3.org/2000/svg">
  <path d="M29.52 18.77v10.75m0-10.75V8.017m0 10.751h10.752m-10.751 0H18.769M29.521 29.52h10.75m-10.75 0v10.75m0-10.75H18.769m0 0V18.769m0 10.752H8.02m10.75 0v10.75m0-21.502V8.02m0 10.75H8.02m21.5-10.75V1m0 7.018H18.769m10.752 0h10.75M18.77 1v7.018m0 0H8.02M47.29 18.77h-7.018m0 0V8.02m0 10.75v10.752m0 0h7.018m-7.018 0v10.75M8.018 29.522H1m7.018 0V18.769m0 10.752v10.75m0-37.998v5.745m0 0V18.77m0-10.75H2.273m5.745 10.75H1M40.272 1.637v6.381m0 0h6.181m-6.181 32.254v6.72m0-6.72H29.52m10.75 0h5.675M29.521 47.29v-7.018m0 0H18.769m0 7.018v-7.018m0 0H8.02m0 6.79v-6.79m0 0H1.415m45.646-2.122v.126m0-.126a8.912 8.912 0 01-8.912 8.912H10.14a8.912 8.912 0 01-8.912-8.912V10.14a8.912 8.912 0 018.912-8.912h30.374a6.548 6.548 0 016.548 6.548V38.15z" stroke="currentColor" stroke-width="2"/>
</svg>
