<svg viewBox="0 0 50 50" fill="none" xmlns="http://www.w3.org/2000/svg">
  <path d="M41.53 1.857H11.115a9.257 9.257 0 00-9.257 9.257v0m39.674-9.257v0a6.612 6.612 0 016.612 6.612v2.645M41.53 1.857v9.257m0 0H1.857m39.674 0h-5.29m11.902 0v9.257m0-9.257H36.24m-34.384 0v9.257m0 0v9.258m0-9.258H30.95m17.192 0v9.258m0-9.258H36.24m11.902 9.258v9.257m0-9.258H25.66m5.29 0v-9.257m0 9.258H1.857m29.094 0h-5.29m-23.804 0v9.257M30.951 20.37h5.29m11.902 18.515v0a9.257 9.257 0 01-9.257 9.257H19.71m28.433-9.257H25.66m-23.804 0v0a9.257 9.257 0 009.257 9.257h8.596M1.857 38.886H19.71m0 0v9.257m0-9.257h5.951m10.58-27.772v9.257M25.66 29.63v9.257M7.147 20.37v-9.257m5.29 0V1.857" stroke="currentColor" stroke-width="2"/>
</svg>
