<svg viewBox="0 0 22 22" fill="none" xmlns="http://www.w3.org/2000/svg">
    <path fill-rule="evenodd" clip-rule="evenodd" d="M15.125 8.137h-1.588l-.78-1.204a.455.455 0 00-.382-.21h-2.75a.455.455 0 00-.381.21l-.78 1.204h-1.59c-.76 0-1.375.633-1.375 1.414v4.313c0 .781.616 1.414 1.375 1.414h8.25c.76 0 1.375-.633 1.375-1.414V9.55c0-.78-.616-1.414-1.375-1.414zm-1.68 3.474a2.444 2.444 0 11-4.89 0 2.444 2.444 0 014.89 0z" fill="#242236" />
    <path d="M11 12.835a1.222 1.222 0 100-2.444 1.222 1.222 0 000 2.444z" fill="currentColor" />
</svg>