<svg viewBox="0 0 48 48" fill="none" xmlns="http://www.w3.org/2000/svg">
    <path d="M30.752 14.681c-1.597-1.548-3.807-2.402-6.223-2.402-3.69 0-5.96 1.529-7.213 2.811-1.546 1.58-2.432 3.678-2.432 5.757 0 2.61 1.08 4.612 2.889 5.357.12.05.243.076.363.076.381 0 .684-.253.789-.657.06-.233.202-.805.264-1.054.131-.491.025-.727-.262-1.07-.523-.625-.767-1.364-.767-2.327 0-2.86 2.107-5.898 6.012-5.898 3.098 0 5.023 1.78 5.023 4.644 0 1.808-.385 3.482-1.085 4.714-.486.856-1.342 1.877-2.655 1.877-.567 0-1.077-.236-1.399-.646-.304-.389-.404-.89-.282-1.413.138-.591.326-1.208.509-1.803.332-1.088.646-2.116.646-2.936 0-1.403-.853-2.345-2.122-2.345-1.614 0-2.878 1.656-2.878 3.77a5.66 5.66 0 00.396 2.11l-1.64 7.022c-.133.57-.932 5.068.39 5.427 1.484.403 2.81-3.979 2.946-4.474.11-.402.492-1.925.727-2.861.717.697 1.87 1.169 2.993 1.169 2.117 0 4.02-.962 5.36-2.71 1.3-1.695 2.015-4.057 2.015-6.652 0-2.028-.862-4.027-2.364-5.486z" fill="#fff" />
</svg>
  