<svg viewBox="0 0 36 36" fill="none" xmlns="http://www.w3.org/2000/svg">
    <path d="M15.333 15.908h-1.288c-.263 0-.527.032-.785.095l-.329.08v-2.228A4.86 4.86 0 0117.786 9a4.86 4.86 0 014.855 4.855v2.228l-.328-.08a3.337 3.337 0 00-.786-.095h-1.288v-2.053c0-1.353-1.1-2.454-2.453-2.454a2.456 2.456 0 00-2.453 2.454v2.053z" fill="currentColor" />
    <path fill-rule="evenodd" clip-rule="evenodd" d="M14.045 16.386h7.482a3.045 3.045 0 013.045 3.045v4.22c0 1.85-1.5 3.35-3.35 3.35H14.35A3.35 3.35 0 0111 23.65v-4.22a3.045 3.045 0 013.045-3.045zm4.9 7.424v-1.757a2.003 2.003 0 10-2.317 0v1.757c0 .638.521 1.159 1.158 1.159.637 0 1.158-.522 1.158-1.159z" fill="currentColor" />
</svg>
  