<svg viewBox="0 0 36 36" fill="none" xmlns="http://www.w3.org/2000/svg">
    <path fill-rule="evenodd" clip-rule="evenodd" d="M20.147 10.5h4.55a.81.81 0 0 1 .805.806v4.549a.81.81 0 0 1-.805.805.809.809 0 0 1-.806-.805v-2.59l-7.55 7.534a.802.802 0 0 1-1.138 0 .8.8 0 0 1 0-1.137l7.535-7.55h-2.59a.809.809 0 0 1-.806-.806c0-.443.363-.806.805-.806Zm1.66 8.277c0-.443.363-.806.805-.806.442 0 .805.363.821.806v3.254a3.509 3.509 0 0 1-3.507 3.507h-5.923a3.509 3.509 0 0 1-3.507-3.507v-5.924a3.509 3.509 0 0 1 3.507-3.506h3.238a.81.81 0 0 1 .806.805.809.809 0 0 1-.806.806h-3.238c-1.027 0-1.88.837-1.88 1.88v5.923c0 1.027.837 1.88 1.88 1.88h5.923c1.027 0 1.88-.837 1.88-1.88v-3.238Z" fill="#000" />
</svg>