<svg viewBox="0 0 26 26" fill="none" xmlns="http://www.w3.org/2000/svg">
    <path fill-rule="evenodd" clip-rule="evenodd" d="M5.391 12.465c0-3.291 3.483-5.965 7.785-5.965 4.286 0 7.768 2.657 7.768 5.949 0 3.291-3.482 5.965-7.784 5.965-.921 0-1.825-.134-2.68-.368-1.054.502-2.61 1.137-4.235 1.437-.05.017-.117.017-.184.017a1.005 1.005 0 01-.753-1.671c.569-.635 1.038-1.437 1.373-2.072-.838-.97-1.29-2.105-1.29-3.292zm9.091-1.57l1.457.217a.689.689 0 01.552.468c.067.25 0 .534-.184.718l-1.071 1.053.267 1.454a.715.715 0 01-.284.685.682.682 0 01-.402.133.75.75 0 01-.318-.083l-1.34-.702-1.305.685a.692.692 0 01-.737-.05c-.218-.167-.335-.418-.285-.685l.268-1.504-1.054-1.02a.689.689 0 01.385-1.186l1.49-.217.653-1.32a.689.689 0 01.619-.384.69.69 0 01.62.384l.67 1.354z" fill="currentColor" />
</svg>
  