<svg viewBox="0 0 30 30" fill="none" xmlns="http://www.w3.org/2000/svg">
    <path d="M8.46 7.775c-.428-.383-1.126-.364-1.527.042a.879.879 0 00.044 1.3l3.116 2.788-1.375.949a.695.695 0 00-.003 1.169l6.243 4.356a.894.894 0 001.005 0l.768-.534 1.02.913-1.85 1.355a1.02 1.02 0 01-1.174.006l-4.875-3.478c-.438-.312-1.07-.263-1.442.111l-.05.05c-.405.407-.345 1.037.131 1.377l5.517 3.933a2.169 2.169 0 002.491-.01l2.75-2.001 2.289 2.065a1.133 1.133 0 001.53-.039.878.878 0 00-.041-1.296l-2.808-2.533L8.459 7.775zm7.477.902l6.074 4.21a.694.694 0 01.007 1.164l-2.298 1.63-6.492-5.806 1.704-1.195a.894.894 0 011.005-.003z" fill="currentColor"/>
  </svg>
