<svg viewBox="0 0 32 32" fill="none" xmlns="http://www.w3.org/2000/svg">
<path fill-rule="evenodd" clip-rule="evenodd" d="M23.7399 12.7193C23.8438 12.7715 23.9264 12.8694 23.9669 12.9779C23.9872 13.0321 24 13.0828 24 13.1417V18.8591C24 19.0381 23.8993 19.2018 23.7399 19.2818L16.2104 23.0621C16.0806 23.1275 15.9194 23.1275 15.7896 23.0621L8.26014 19.2818C8.10071 19.2018 8 19.0381 8 18.8591V13.1417C8 12.9697 8.10673 12.796 8.26014 12.7193L15.7896 8.93896C15.9221 8.87224 16.0779 8.87224 16.2104 8.93896L23.7399 12.7193ZM9.77778 17.7778V18.0982L15.1111 20.776V20.4445V18.2222L15.1111 17.0041L9.77778 14.3264V16.4445V17.7778ZM16.8889 20V20.776L22.2222 18.0982V17.7778V15.5556V14.3264L16.8889 17.0041V18.2222V20Z" fill="currentColor"/>
</svg>
