<svg viewBox="0 0 24 24" fill="none" xmlns="http://www.w3.org/2000/svg">
    <path d="M10.875 9.375V9h3.375c.825 0 1.5-.675 1.5-1.5S15.075 6 14.25 6H8.625c-.825 0-1.5.675-1.5 1.5v3c0 .225.15.375.375.375s.375-.15.375-.375V9.375c0-.188.112-.338.3-.375h.15c.15.037.3.188.3.375v.375c0 .225.15.375.375.375s.375-.15.375-.375v-.375c0-.188.113-.338.3-.375h.15c.15.037.3.188.3.375 0 .225.15.375.375.375s.375-.15.375-.375ZM6 7.5c0 .225.15.375.375.375h.375v-.75h-.375c-.225 0-.375.15-.375.375Z" fill="currentColor" />
    <path d="M16.125 7.125h.375c.825 0 1.5.675 1.5 1.5V9c0 .825-.675 1.5-1.5 1.5h-3.75a.752.752 0 0 0-.75.75v1.875c.412 0 .75.338.75.75v3.375c0 .413-.338.75-.75.75h-.75a.752.752 0 0 1-.75-.75v-3.375c0-.412.338-.75.75-.75V11.25c0-.825.675-1.5 1.5-1.5h3.75c.413 0 .75-.338.75-.75v-.375a.752.752 0 0 0-.75-.75h-.375v-.75Z" fill="currentColor" />
</svg>