<svg viewBox="0 0 20 19" fill="none" xmlns="http://www.w3.org/2000/svg">
  <path d="M9.06688 5.61779C9.30565 5.61678 9.4989 5.42291 9.4989 5.1839C9.4989 4.94426 9.30463 4.75 9.065 4.75V5.1839C9.065 4.75 9.065 4.75 9.065 4.75L9.06407 4.75L9.06295 4.75L9.06019 4.75002L9.05254 4.75011C9.04652 4.75021 9.03866 4.75039 9.02909 4.7507C9.00995 4.75134 8.98388 4.75254 8.95185 4.75481C8.88793 4.75935 8.79943 4.76822 8.69436 4.78562C8.48629 4.82008 8.20218 4.88982 7.91277 5.03363C7.62172 5.17826 7.31708 5.40214 7.08611 5.74646C6.89813 6.02668 6.7704 6.36974 6.72813 6.78249L6.46464 6.78261C6.17784 6.78272 6.01765 7.11429 6.18764 7.34301L6.88245 8.27658C7.02095 8.46236 7.29896 8.46318 7.43755 8.27636L8.13051 7.34226C8.30052 7.1134 8.13921 6.78195 7.8524 6.78207L7.6026 6.78216C7.63869 6.54406 7.71565 6.36573 7.80677 6.22989C7.93548 6.03802 8.11041 5.90445 8.29894 5.81077C8.4891 5.71628 8.68456 5.66687 8.83617 5.64175C8.91094 5.62937 8.97231 5.62334 9.0133 5.62043C9.03372 5.61898 9.04886 5.61832 9.05782 5.61803L9.06688 5.61779Z" fill="currentColor" />
  <path fill-rule="evenodd" clip-rule="evenodd" d="M13.4725 4.75H11.3715C10.6526 4.75 10.0698 5.33279 10.0698 6.0517V9.06616L7.05536 9.06615C6.33645 9.06615 5.75366 9.64895 5.75366 10.3679V12.9484C5.75366 13.6673 6.33645 14.2501 7.05536 14.2501H11.5542C12.2731 14.2501 12.8559 13.6673 12.8559 12.9484V11.3727H13.4725C14.1914 11.3727 14.7742 10.7899 14.7742 10.071V6.0517C14.7742 5.33279 14.1914 4.75 13.4725 4.75ZM11.5542 9.06616H10.9376V6.0517C10.9376 5.81206 11.1319 5.6178 11.3715 5.6178H13.4725C13.7121 5.6178 13.9064 5.81206 13.9064 6.0517V10.071C13.9064 10.3106 13.7121 10.5049 13.4725 10.5049H12.8559V10.3679C12.8559 9.64894 12.2731 9.06616 11.5542 9.06616ZM11.9881 10.3679C11.9881 10.1282 11.7938 9.93395 11.5542 9.93395H7.05536C6.81572 9.93395 6.62146 10.1282 6.62146 10.3679L6.62146 12.9484C6.62146 13.188 6.81572 13.3823 7.05536 13.3823H11.5542C11.7938 13.3823 11.9881 13.188 11.9881 12.9484V10.3679Z" fill="currentColor" />
</svg>
  