<svg viewBox="0 0 24 24" fill="none" xmlns="http://www.w3.org/2000/svg">
    <path d="M6.94723 13.0458L6.31573 13.3932C6.17069 13.4728 6.06486 13.6038 6.02152 13.7575C5.97817 13.9112 6.00087 14.075 6.0846 14.2128L7.02427 15.7596C7.10801 15.8974 7.24594 15.998 7.40771 16.0391C7.56948 16.0803 7.74185 16.0588 7.88689 15.9792L8.52596 15.63C8.71664 15.5255 8.9329 15.4704 9.15304 15.4704C9.37318 15.4704 9.58944 15.5255 9.78011 15.63L9.79274 15.6366C9.98447 15.741 10.1438 15.8916 10.2547 16.0732C10.3656 16.2548 10.4241 16.461 10.4242 16.671V17.4C10.4242 17.5591 10.4908 17.7117 10.6092 17.8243C10.7276 17.9368 10.8883 18 11.0557 18H12.9502C13.1177 18 13.2783 17.9368 13.3968 17.8243C13.5152 17.7117 13.5817 17.5591 13.5817 17.4V16.6692C13.5817 16.4598 13.6397 16.2541 13.75 16.0728C13.8603 15.8915 14.019 15.741 14.2101 15.6366L14.2233 15.6294C14.414 15.5249 14.6303 15.4698 14.8504 15.4698C15.0705 15.4698 15.2868 15.5249 15.4775 15.6294L16.114 15.9786C16.2591 16.0582 16.4314 16.0797 16.5932 16.0385C16.755 15.9974 16.8929 15.8968 16.9766 15.759L17.9163 14.2122C17.9576 14.1438 17.9842 14.0684 17.9948 13.9903C18.0054 13.9121 17.9997 13.8328 17.978 13.7567C17.9563 13.6807 17.9191 13.6094 17.8684 13.547C17.8177 13.4847 17.7546 13.4324 17.6826 13.3932L17.0512 13.0458C16.8588 12.9407 16.6991 12.7892 16.5882 12.6066C16.4773 12.424 16.4192 12.2168 16.4197 12.006V11.9934C16.4191 11.7827 16.4772 11.5755 16.5881 11.393C16.699 11.2105 16.8588 11.0591 17.0512 10.9542L17.6826 10.6068C17.8277 10.5272 17.9335 10.3962 17.9769 10.2425C18.0202 10.0888 17.9975 9.92501 17.9138 9.7872L16.9728 8.2404C16.8891 8.1026 16.7512 8.00204 16.5894 7.96086C16.4276 7.91968 16.2553 7.94124 16.1102 8.0208L15.4724 8.37C15.2817 8.47453 15.0655 8.52955 14.8453 8.52955C14.6252 8.52955 14.4089 8.47453 14.2183 8.37L14.2094 8.364C14.0177 8.2596 13.8584 8.10899 13.7475 7.92737C13.6366 7.74576 13.5781 7.53956 13.5779 7.3296V6.6C13.5779 6.44087 13.5114 6.28826 13.393 6.17574C13.2745 6.06321 13.1139 6 12.9464 6H11.0519C10.8845 6 10.7238 6.06321 10.6054 6.17574C10.487 6.28826 10.4205 6.44087 10.4205 6.6V7.3764C10.4202 7.57186 10.3658 7.7638 10.2627 7.93295C10.1596 8.1021 10.0114 8.24248 9.83316 8.34L9.73654 8.3928C9.55861 8.49026 9.35684 8.54157 9.15146 8.54157C8.94608 8.54157 8.74431 8.49026 8.56638 8.3928L7.88815 8.0208C7.74311 7.94124 7.57075 7.91968 7.40898 7.96086C7.2472 8.00204 7.10928 8.1026 7.02553 8.2404L6.08587 9.7872C6.00202 9.92486 5.97914 10.0885 6.02224 10.2422C6.06534 10.3959 6.17091 10.527 6.31573 10.6068L6.94723 10.9542C7.13957 11.0593 7.29928 11.2108 7.41017 11.3934C7.52107 11.576 7.57921 11.7832 7.57872 11.994V12.0066C7.57929 12.2173 7.52118 12.4245 7.41027 12.607C7.29936 12.7895 7.13961 12.9409 6.94723 13.0458V13.0458ZM11.9992 10.2C12.3739 10.2 12.7402 10.3056 13.0517 10.5034C13.3633 10.7011 13.6061 10.9823 13.7495 11.3112C13.8929 11.6401 13.9304 12.002 13.8573 12.3512C13.7842 12.7003 13.6037 13.0211 13.3388 13.2728C13.0738 13.5245 12.7363 13.696 12.3688 13.7654C12.0013 13.8349 11.6204 13.7992 11.2742 13.663C10.928 13.5267 10.6322 13.296 10.424 13C10.2158 12.704 10.1047 12.356 10.1047 12C10.1047 11.5226 10.3043 11.0648 10.6596 10.7272C11.0149 10.3896 11.4967 10.2 11.9992 10.2V10.2Z" fill="currentColor" />
</svg>
    