<svg viewBox="0 0 41 40" fill="none" xmlns="http://www.w3.org/2000/svg">
  <path d="M25.384 22.171a3.251 3.251 0 013.256 3.256 3.251 3.251 0 01-3.256 3.256 3.252 3.252 0 01-3.256-3.256c0-.26.032-.5.098-.749l-4.754-2.496a3.207 3.207 0 01-2.398 1.074A3.251 3.251 0 0111.818 20a3.251 3.251 0 013.256-3.255c.955 0 1.801.423 2.398 1.074l4.754-2.496a2.895 2.895 0 01-.098-.749 3.251 3.251 0 013.256-3.256 3.251 3.251 0 013.256 3.256 3.251 3.251 0 01-3.256 3.256 3.247 3.247 0 01-2.399-1.074l-4.753 2.496a2.9 2.9 0 010 1.497l4.753 2.497a3.207 3.207 0 012.399-1.075z" fill="currentColor" />
</svg>
