<svg width="36" height="36" viewBox="0 0 36 36" fill="none" xmlns="http://www.w3.org/2000/svg">
    <path fill-rule="evenodd" clip-rule="evenodd" d="m20.175 16.47-.006-.093v-.01a.762.762 0 0 0-.752-.658.756.756 0 0 0-.758.76v5.705l.006.093.001.01a.762.762 0 0 0 .803.656.756.756 0 0 0 .706-.76V16.47Zm-2.837 0-.007-.093v-.01a.762.762 0 0 0-.752-.658.757.757 0 0 0-.758.76v5.705l.006.093.001.01a.762.762 0 0 0 .803.656.757.757 0 0 0 .706-.76V16.47Z" fill="#000" />
    <path fill-rule="evenodd" clip-rule="evenodd" d="M11.106 13.768h.509l1.025 10.473.02.146v.005a2.387 2.387 0 0 0 2.349 2.006h5.979l.147-.005h.005a2.375 2.375 0 0 0 1.502-.667c.405-.394.659-.92.714-1.485l1.025-10.473h.51l.092-.006.01-.001a.757.757 0 0 0 .653-.806.762.762 0 0 0-.756-.71h-4.11v-.003l-.001-.005a2.804 2.804 0 0 0-.868-1.875 2.778 2.778 0 0 0-3.883.056 2.804 2.804 0 0 0-.811 1.828h-4.11l-.094.005-.01.002a.757.757 0 0 0-.655.754l.006.093.001.01a.762.762 0 0 0 .751.658Zm3.291 10.852a.87.87 0 0 1-.248-.528l-1.011-10.324h9.72l-1.01 10.32-.015.094a.865.865 0 0 1-.845.693h-5.976l-.095-.004a.861.861 0 0 1-.52-.25Zm2.742-13.163a1.265 1.265 0 0 1 2.12.789h-2.521c.036-.302.178-.582.4-.789Z" fill="#000" />
</svg>