<svg viewBox="0 0 24 24" fill="none" xmlns="http://www.w3.org/2000/svg">
    <path fill-rule="evenodd" clip-rule="evenodd" d="M16.967 8.684a.19.19 0 0 1-.037-.005.343.343 0 0 0-.056-.006H9.556l-.117-.779A1.04 1.04 0 0 0 8.406 7h-.941A.466.466 0 0 0 7 7.465c0 .255.21.464.465.464h.94c.059 0 .105.047.117.105l.72 4.902c.093.616.627 1.08 1.254 1.08h4.833c.604 0 1.127-.43 1.255-1.022l.755-3.775a.46.46 0 0 0-.372-.535Zm-2.126 5.761a1.207 1.207 0 1 0 0 2.416c.662 0 1.208-.534 1.208-1.208a1.222 1.222 0 0 0-1.208-1.208Zm-4.16 0a1.2 1.2 0 0 1 1.197 1.15c.035.662-.488 1.22-1.15 1.255h-.023A1.19 1.19 0 0 1 9.52 15.7a1.215 1.215 0 0 1 1.162-1.255Z" fill="#fff" />
</svg>