<svg viewBox="0 0 36 36" fill="none" xmlns="http://www.w3.org/2000/svg">
  <path d="M5.07 11.456l7.104 14.707c.49.9 1.558.776 2.13-.29l2.19-4.595a1.012 1.012 0 00-.03-.852l-3.221-6.7c-1.423-2.686-1.22-3.171-3.672-3.171H5.544c-.406 0-.68.521-.473.9zm10.032 0l7.103 14.707c.49.9 1.588.776 2.131-.29l2.189-4.595a1.012 1.012 0 00-.03-.852l-3.22-6.7c-1.424-2.686-1.22-3.171-3.672-3.171h-4.028c-.406 0-.68.521-.473.9zm15.717.765l-1.674.811c-.112.037-.186.147-.223.221l-.819 1.658c-.037.074-.111.074-.111.074-.037 0-.074 0-.112-.074l-.818-1.658c-.037-.11-.149-.184-.223-.221l-1.674-.81c-.074-.038-.074-.111-.074-.111 0-.037 0-.074.074-.11l1.674-.812c.112-.036.186-.147.223-.22l.818-1.659c.038-.074.112-.074.112-.074.037 0 .074 0 .111.074l.819 1.658c.037.11.149.185.223.221l1.674.811a.13.13 0 01.074.11c0 .038 0 .074-.074.111z" fill="#FA5961"/>
</svg>
