<?xml version="1.0" encoding="UTF-8" standalone="no"?>
<svg
   xmlns:dc="http://purl.org/dc/elements/1.1/"
   xmlns:cc="http://creativecommons.org/ns#"
   xmlns:rdf="http://www.w3.org/1999/02/22-rdf-syntax-ns#"
   xmlns:svg="http://www.w3.org/2000/svg"
   xmlns="http://www.w3.org/2000/svg"
   xmlns:sodipodi="http://sodipodi.sourceforge.net/DTD/sodipodi-0.dtd"
   xmlns:inkscape="http://www.inkscape.org/namespaces/inkscape"
   version="1.1"
   id="svg835"
   width="25.000004"
   height="24.998833"
   viewBox="0 0 25.000004 24.998833"
   sodipodi:docname="logo-icone.png"
   inkscape:version="1.0.1 (3bc2e813f5, 2020-09-07)">
  <metadata
     id="metadata841">
    <rdf:RDF>
      <cc:Work
         rdf:about="">
        <dc:format>image/svg+xml</dc:format>
        <dc:type
           rdf:resource="http://purl.org/dc/dcmitype/StillImage" />
        <dc:title></dc:title>
      </cc:Work>
    </rdf:RDF>
  </metadata>
  <defs
     id="defs839" />
  <sodipodi:namedview
     pagecolor="#ffffff"
     bordercolor="#666666"
     borderopacity="1"
     objecttolerance="10"
     gridtolerance="10"
     guidetolerance="10"
     inkscape:pageopacity="0"
     inkscape:pageshadow="2"
     inkscape:window-width="1920"
     inkscape:window-height="1017"
     id="namedview837"
     showgrid="false"
     fit-margin-top="0"
     fit-margin-left="0"
     fit-margin-right="0"
     fit-margin-bottom="0"
     inkscape:zoom="1.0481319"
     inkscape:cx="-243.90835"
     inkscape:cy="-63.05591"
     inkscape:window-x="-8"
     inkscape:window-y="-1"
     inkscape:window-maximized="1"
     inkscape:current-layer="g843" />
  <g
     inkscape:groupmode="layer"
     inkscape:label="Image"
     id="g843">
    <path
       style="fill:#000000;stroke-width:0.32"
       id="path1983"
       d="" />
    <path
       style="fill:#62355e;fill-opacity:1;stroke-width:0.0836601"
       d="M 9.82484,24.84003 C 8.51182,24.5432 7.30807,24.06071 6.78727,23.62248 6.64206,23.50029 6.28879,23.01821 6.00223,22.55118 5.18355,21.2169 5.09179,21.13759 3.94796,20.77558 3.02485,20.48343 2.9441,20.43965 2.5098,19.99567 2.23638,19.71615 1.87483,19.20311 1.61879,18.73131 1.3818,18.29463 1.19747,17.92716 1.20916,17.91473 c 0.0426,-0.0454 1.94373,0.4776 2.49376,0.686 2.00983,0.76151 3.34119,1.73707 5.48064,4.01599 0.74373,0.79222 1.85958,2.18861 1.85958,2.32713 0,0.10176 -0.4958,0.0595 -1.2183,-0.10382 z m 4.68225,-0.32196 C 13.79849,24.05732 12.75557,23.19273 9.96722,20.7545 7.249,18.37761 6.64178,17.89795 5.77311,17.44147 4.67271,16.86323 3.23045,16.48939 1.43504,16.31704 0.94379,16.26984 0.60716,16.19604 0.52954,16.11842 0.38765,15.97653 0.25589,15.47335 0.25298,15.06223 l -0.002,-0.28164 0.5647,0.0582 c 1.06042,0.10919 2.73862,0.47703 3.86041,0.84614 2.08304,0.68541 3.56722,1.5137 5.05674,2.82209 0.67579,0.59361 1.03499,0.8303 2.00784,1.32302 1.47316,0.74611 1.8141,0.97655 3.41613,2.30886 0.70702,0.58799 1.53892,1.2315 1.84866,1.43002 0.30974,0.19852 0.56316,0.39265 0.56316,0.43141 0,0.16096 -1.94308,0.83902 -2.40433,0.83902 -0.0898,0 -0.3855,-0.14455 -0.65721,-0.32123 z m 5.51296,-2.47506 C 19.82689,21.93256 19.4316,21.649 19.14162,21.41287 18.39151,20.80207 17.76334,20.52605 16.68761,20.33459 16.18289,20.24479 15.57292,20.09296 15.33214,19.99726 14.49709,19.66537 13.37629,18.91829 11.66338,17.55185 9.6142,15.91715 9.35924,15.78377 5.89804,14.53581 3.39649,13.63386 2.24362,13.33961 0.52288,13.16386 L 0,13.11046 v -0.52485 -0.52485 l 1.15801,-0.0597 c 1.67294,-0.0862 2.38924,0.0415 3.80746,0.67893 1.02578,0.46102 1.3452,0.57833 2.89858,1.0645 1.95412,0.6116 3.1475,1.27647 5.29361,2.94926 1.28079,0.9983 2.37472,1.74144 2.9964,2.03555 0.80773,0.38211 0.8425,0.36052 0.62093,-0.3856 C 16.51537,17.46945 15.21977,15.96016 13.86954,14.95902 12.92208,14.25653 11.91861,13.79205 10.08105,13.20544 8.25804,12.62348 6.72233,12.06992 5.66653,11.61419 4.80326,11.24157 4.57066,11.19055 2.43929,10.9064 1.54926,10.78774 0.73558,10.65816 0.63112,10.61844 c -0.1704,-0.0648 -0.36107,-0.41927 -0.2259,-0.41998 0.0302,-1.6e-4 0.48785,-0.0395 1.017,-0.0874 1.07433,-0.0973 1.50588,-0.2044801 1.50588,-0.3741201 0,-0.0628 -0.21469,-0.29517 -0.4771,-0.51639 -0.86336,-0.72783 -1.36342,-1.21939 -1.36342,-1.34024 0,-0.17116 0.10651,-0.12953 2.52826,0.98822 2.95796,1.3652401 3.55492,1.6042501 5.33463,2.1358301 2.75322,0.82235 4.00829,1.36999 5.65579,2.46782 1.16843,0.77861 2.37698,1.97912 3.65283,3.62852 1.07977,1.3959 1.33854,1.67855 2.51793,2.75022 0.44935,0.40831 0.87892,0.83688 0.9546,0.95239 0.13698,0.20905 0.13469,0.2128 -0.50514,0.82624 -0.35352,0.33894 -0.69056,0.61579 -0.749,0.61524 -0.0584,-5.9e-4 -0.26428,-0.0914 -0.45743,-0.20182 z m 1.77341,-4.54014 c -1.97485,-2.17628 -2.8502,-3.03638 -5.75226,-5.65202 -0.56631,-0.51042 -0.8995,-0.91544 -1.56404,-1.9012501 -1.40493,-2.08414 -1.9414,-2.61573 -3.33461,-3.30427 -0.32751,-0.16186 -0.86974,-0.47826 -1.20496,-0.7031 -0.694,-0.4655 -0.89021,-0.53709 -1.97909,-0.72214 -0.89462,-0.15204 -1.46734,-0.38982 -1.6648,-0.69118 -0.12964,-0.19785 -0.12683,-0.21558 0.0577,-0.36502 0.44828,-0.363 1.84224,-0.56638 2.85489,-0.41653 0.80418,0.11901 2.53629,0.96113 3.38453,1.64551 0.69953,0.5644 0.99535,0.72297 1.71503,0.91932 1.24999,0.34103 1.56563,0.62836 3.27767,2.98362 1.63146,2.2444101 1.92771,2.5623401 3.17566,3.4081101 1.84433,1.24995 1.90634,1.31861 2.07384,2.296 0.11517,0.67203 0.38252,1.23779 0.90806,1.92158 l 0.37663,0.49004 -0.28371,0.59011 c -0.28714,0.59726 -0.54181,0.98356 -0.64533,0.97888 -0.0312,-0.001 -0.65903,-0.66635 -1.39524,-1.47766 z m -6.0481,-4.20805 c -0.19757,-0.0897 -1.14141,-0.57842 -2.09741,-1.08611 -0.95601,-0.5077 -2.04988,-1.03683 -2.43083,-1.17586 -1.1975,-0.43704 -1.50589,-0.66093 -2.14606,-1.5580401 -0.47066,-0.65957 -1.22644,-1.23621 -1.86269,-1.42117 -0.43542,-0.12658 -0.54874,-0.12592 -1.60739,0.009 -1.65796,0.21192 -2.02632,0.11426 -3.40408,-0.90247 -0.64363,-0.47497 -0.68192,-0.52012 -0.57705,-0.68036 0.1796,-0.27441 0.61186,-0.52842 1.06445,-0.62548 0.75452,-0.16182 2.80916,-0.0735 4.08926,0.17573 1.21877,0.23731 5.47481,2.83779 6.56227,4.0096001 0.71751,0.77316 2.88682,3.4255 2.79686,3.41963 -0.0155,-10e-4 -0.18976,-0.0752 -0.38733,-0.16487 z m 6.93257,-1.4321 c -0.65591,-0.43799 -1.77383,-1.54955 -3.09074,-3.0731501 -2.31351,-2.67661 -3.57488,-3.67873 -5.12123,-4.06868 -1.69572,-0.42761 -2.68109,-0.87746 -3.57962,-1.63421 -0.91747,-0.77269 -1.18381,-0.86945 -2.39484,-0.87005 -1.30645,-6.7e-4 -2.01901,0.19645 -3.63404,1.00512 -0.66817,0.33456 -1.22636,0.59681 -1.2404,0.58276 -0.061,-0.061 1.3038,-1.25256 1.86307,-1.62662 0.63422,-0.4242 1.49984,-0.75144 3.33961,-1.26250999 1,-0.27779 1.49854,-0.31428 1.9152,-0.14018 0.14963,0.0625 0.87313,0.61474999 1.60777,1.22718999 1.49431,1.24573 2.38268,1.85363 2.93475,2.00819 0.43397,0.12151 0.51986,0.0738 0.37036,-0.20549 -0.34698,-0.64833 -1.66265,-1.93201 -3.16134,-3.08446999 -0.46836,-0.36015 -0.74342,-0.62516 -0.69704,-0.67154 0.0424,-0.0424 0.57505,-0.0608 1.19195,-0.0413 1.4037,0.0444 1.52698,0.098 2.95586,1.28335999 2.13274,1.7693 2.74459,2.4691 5.52059,6.31418 2.49823,3.4603301 2.50659,3.4733201 2.50868,3.8982601 0.004,0.80568 -0.43619,0.92836 -1.28859,0.35915 z m 2.23396,-0.34273 c -0.0334,-0.21661 -0.13982,-0.63073 -0.23658,-0.92027 -0.27896,-0.8347201 -2.48058,-4.7068701 -3.36149,-5.9120701 -0.44534,-0.60929 -1.74798,-2.17911 -1.98639,-2.39382 -0.10162,-0.0915 -0.22248,-0.23686 -0.26857,-0.32299 -0.13128,-0.2453 0.65136,0.21818 1.46208,0.86585 1.60732,1.28405 3.12605,3.5518 3.89392,5.81438 0.32766,0.96545 0.61477,2.3833601 0.58269,2.8776201 l -0.025,0.38512 z"
       id="path1999" />
  </g>
</svg>
