<svg viewBox="0 0 48 48" fill="none" xmlns="http://www.w3.org/2000/svg">
    <path d="M36.598 15.536a10.67 10.67 0 01-1.83.615 5.76 5.76 0 001.507-2.4.3.3 0 00-.44-.348c-.873.517-1.81.905-2.793 1.157a.805.805 0 01-.175.02.73.73 0 01-.491-.188 5.732 5.732 0 00-3.782-1.43 6.25 6.25 0 00-1.811.279 5.525 5.525 0 00-3.73 3.99 6.131 6.131 0 00-.137 2.107.21.21 0 01-.051.162.207.207 0 01-.155.071h-.02c-4.06-.375-7.72-2.334-10.307-5.502a.3.3 0 00-.491.038 5.73 5.73 0 00-.776 2.878 5.68 5.68 0 001.707 4.073 5.354 5.354 0 01-1.306-.504.301.301 0 00-.446.259 5.736 5.736 0 003.336 5.276h-.123c-.323 0-.646-.033-.963-.09-.22-.046-.407.167-.343.387a5.724 5.724 0 004.526 3.9 10.546 10.546 0 01-5.91 1.797h-.659a.437.437 0 00-.427.33c-.051.193.046.4.22.497a15.707 15.707 0 007.889 2.128c2.424 0 4.687-.479 6.737-1.43a14.943 14.943 0 004.934-3.691 16.2 16.2 0 003.02-5.057c.672-1.79 1.027-3.705 1.027-5.535v-.084a.99.99 0 01.362-.756 11.3 11.3 0 002.276-2.496c.162-.265-.097-.575-.375-.453z" fill="#fff" />
</svg>
  