<svg viewBox="0 0 190 48" fill="none" xmlns="http://www.w3.org/2000/svg">
  <path d="M42 33V15H47.9137V17.2616H45.088V30.7313H47.9137V33H42Z" fill="black"/>
  <path d="M53.7225 16.7139H57.3576L60.8579 22.9866H61.0078L64.508 16.7139H68.1432L62.5443 26.13V31.2789H59.3214V26.13L53.7225 16.7139Z" fill="black"/>
  <path d="M83.0942 23.9964C83.0942 25.5847 82.7769 26.936 82.1423 28.0502C81.5127 29.1644 80.6533 30.0154 79.564 30.6033C78.4797 31.1865 77.2605 31.4781 75.9063 31.4781C74.5422 31.4781 73.318 31.1841 72.2337 30.5962C71.1494 30.0083 70.2924 29.1572 69.6628 28.0431C69.0333 26.9289 68.7185 25.58 68.7185 23.9964C68.7185 22.4081 69.0333 21.0569 69.6628 19.9427C70.2924 18.8285 71.1494 17.9798 72.2337 17.3967C73.318 16.8088 74.5422 16.5148 75.9063 16.5148C77.2605 16.5148 78.4797 16.8088 79.564 17.3967C80.6533 17.9798 81.5127 18.8285 82.1423 19.9427C82.7769 21.0569 83.0942 22.4081 83.0942 23.9964ZM79.8038 23.9964C79.8038 22.9676 79.6414 22.1 79.3166 21.3935C78.9968 20.6871 78.5446 20.1513 77.96 19.7863C77.3754 19.4212 76.6908 19.2386 75.9063 19.2386C75.1218 19.2386 74.4373 19.4212 73.8527 19.7863C73.268 20.1513 72.8133 20.6871 72.4885 21.3935C72.1687 22.1 72.0088 22.9676 72.0088 23.9964C72.0088 25.0253 72.1687 25.8929 72.4885 26.5994C72.8133 27.3058 73.268 27.8416 73.8527 28.2066C74.4373 28.5717 75.1218 28.7542 75.9063 28.7542C76.6908 28.7542 77.3754 28.5717 77.96 28.2066C78.5446 27.8416 78.9968 27.3058 79.3166 26.5994C79.6414 25.8929 79.8038 25.0253 79.8038 23.9964Z" fill="black"/>
  <path d="M94.9797 16.7139H98.2251V26.1727C98.2251 27.2347 97.9578 28.164 97.4231 28.9605C96.8935 29.757 96.1515 30.3781 95.1971 30.8238C94.2427 31.2647 93.1309 31.4852 91.8617 31.4852C90.5875 31.4852 89.4732 31.2647 88.5189 30.8238C87.5645 30.3781 86.8224 29.757 86.2928 28.9605C85.7631 28.164 85.4983 27.2347 85.4983 26.1727V16.7139H88.7437V25.9095C88.7437 26.4642 88.8711 26.9573 89.126 27.3888C89.3858 27.8202 89.7506 28.1592 90.2203 28.4058C90.69 28.6523 91.2371 28.7756 91.8617 28.7756C92.4913 28.7756 93.0384 28.6523 93.5031 28.4058C93.9728 28.1592 94.3351 27.8202 94.59 27.3888C94.8498 26.9573 94.9797 26.4642 94.9797 25.9095V16.7139Z" fill="black"/>
  <path d="M100.895 31.2789V16.7139H106.951C108.111 16.7139 109.1 16.9107 109.919 17.3042C110.744 17.693 111.371 18.2454 111.801 18.9613C112.235 19.6725 112.453 20.5093 112.453 21.4718C112.453 22.439 112.233 23.271 111.793 23.968C111.354 24.6602 110.716 25.1912 109.882 25.561C109.053 25.9309 108.048 26.1158 106.869 26.1158H102.814V23.6409H106.344C106.964 23.6409 107.479 23.5603 107.888 23.3991C108.298 23.2379 108.603 22.996 108.803 22.6736C109.008 22.3512 109.11 21.9506 109.11 21.4718C109.11 20.9881 109.008 20.5804 108.803 20.2485C108.603 19.9166 108.296 19.6653 107.881 19.4947C107.471 19.3192 106.954 19.2315 106.329 19.2315H104.141V31.2789H100.895ZM109.185 24.6507L113 31.2789H109.417L105.685 24.6507H109.185Z" fill="black"/>
  <path d="M119 31.7871V16.2129H122.243V29.0722H128.818V31.7871H119Z" fill="#FA5961"/>
  <path d="M144.462 24C144.462 25.6984 144.145 27.1432 143.511 28.3346C142.881 29.526 142.023 30.436 140.934 31.0646C139.851 31.6882 138.633 32 137.28 32C135.917 32 134.694 31.6857 133.61 31.057C132.527 30.4284 131.671 29.5184 131.042 28.327C130.413 27.1356 130.098 25.6933 130.098 24C130.098 22.3016 130.413 20.8568 131.042 19.6654C131.671 18.474 132.527 17.5665 133.61 16.943C134.694 16.3143 135.917 16 137.28 16C138.633 16 139.851 16.3143 140.934 16.943C142.023 17.5665 142.881 18.474 143.511 19.6654C144.145 20.8568 144.462 22.3016 144.462 24ZM141.174 24C141.174 22.8999 141.012 21.9721 140.687 21.2167C140.368 20.4613 139.916 19.8885 139.332 19.4981C138.748 19.1077 138.064 18.9125 137.28 18.9125C136.496 18.9125 135.812 19.1077 135.228 19.4981C134.644 19.8885 134.19 20.4613 133.865 21.2167C133.546 21.9721 133.386 22.8999 133.386 24C133.386 25.1001 133.546 26.0279 133.865 26.7833C134.19 27.5387 134.644 28.1115 135.228 28.5019C135.812 28.8923 136.496 29.0875 137.28 29.0875C138.064 29.0875 138.748 28.8923 139.332 28.5019C139.916 28.1115 140.368 27.5387 140.687 26.7833C141.012 26.0279 141.174 25.1001 141.174 24Z" fill="#FA5961"/>
  <path d="M157.033 21.2471C156.928 20.8771 156.781 20.5501 156.591 20.2662C156.402 19.9772 156.17 19.7338 155.895 19.5361C155.625 19.3333 155.316 19.1787 154.966 19.0722C154.622 18.9658 154.24 18.9125 153.821 18.9125C153.037 18.9125 152.348 19.1103 151.754 19.5057C151.165 19.9011 150.705 20.4766 150.376 21.2319C150.046 21.9823 149.882 22.8999 149.882 23.9848C149.882 25.0697 150.044 25.9924 150.368 26.7529C150.693 27.5133 151.152 28.0938 151.746 28.4943C152.34 28.8897 153.042 29.0875 153.851 29.0875C154.584 29.0875 155.211 28.9556 155.73 28.692C156.254 28.4233 156.654 28.0456 156.928 27.5589C157.208 27.0722 157.348 26.4968 157.348 25.8327L158.007 25.9316H154.053V23.4525H160.471V25.4144C160.471 26.7833 160.186 27.9594 159.617 28.943C159.048 29.9214 158.264 30.6768 157.265 31.2091C156.267 31.7364 155.124 32 153.836 32C152.398 32 151.135 31.6781 150.046 31.0342C148.958 30.3853 148.109 29.4651 147.5 28.2738C146.896 27.0773 146.594 25.6578 146.594 24.0152C146.594 22.7529 146.774 21.6274 147.133 20.6388C147.498 19.6451 148.007 18.8035 148.661 18.1141C149.315 17.4246 150.076 16.8999 150.945 16.5399C151.814 16.18 152.755 16 153.768 16C154.637 16 155.446 16.1293 156.195 16.3878C156.943 16.6413 157.607 17.0013 158.187 17.4677C158.771 17.9341 159.247 18.4892 159.617 19.1331C159.986 19.7719 160.223 20.4766 160.328 21.2471H157.033Z" fill="#FA5961"/>
  <path d="M177 24C177 25.6984 176.683 27.1432 176.049 28.3346C175.42 29.526 174.561 30.436 173.473 31.0646C172.389 31.6882 171.171 32 169.818 32C168.455 32 167.232 31.6857 166.149 31.057C165.066 30.4284 164.209 29.5184 163.58 28.327C162.951 27.1356 162.637 25.6933 162.637 24C162.637 22.3016 162.951 20.8568 163.58 19.6654C164.209 18.474 165.066 17.5665 166.149 16.943C167.232 16.3143 168.455 16 169.818 16C171.171 16 172.389 16.3143 173.473 16.943C174.561 17.5665 175.42 18.474 176.049 19.6654C176.683 20.8568 177 22.3016 177 24ZM173.712 24C173.712 22.8999 173.55 21.9721 173.226 21.2167C172.906 20.4613 172.454 19.8885 171.87 19.4981C171.286 19.1077 170.602 18.9125 169.818 18.9125C169.035 18.9125 168.351 19.1077 167.766 19.4981C167.182 19.8885 166.728 20.4613 166.403 21.2167C166.084 21.9721 165.924 22.8999 165.924 24C165.924 25.1001 166.084 26.0279 166.403 26.7833C166.728 27.5387 167.182 28.1115 167.766 28.5019C168.351 28.8923 169.035 29.0875 169.818 29.0875C170.602 29.0875 171.286 28.8923 171.87 28.5019C172.454 28.1115 172.906 27.5387 173.226 26.7833C173.55 26.0279 173.712 25.1001 173.712 24Z" fill="#FA5961"/>
  <path d="M190 15V33H184V30.7313H186.867V17.2616H184V15H190Z" fill="black"/>
</svg>