<svg viewBox="0 0 135 48" fill="none" xmlns="http://www.w3.org/2000/svg">
    <path d="M11 31V17H15.4977V18.759H13.3486V29.2355H15.4977V31H11Z" fill="black"/>
    <path d="M19.9157 18.3331H22.6805L25.3426 23.2118H25.4566L28.1188 18.3331H30.8836L26.6252 25.6567V29.6614H24.174V25.6567L19.9157 18.3331Z" fill="black"/>
    <path d="M42.2548 23.9972C42.2548 25.2326 42.0134 26.2836 41.5308 27.1501C41.0519 28.0167 40.3983 28.6787 39.5698 29.1359C38.7451 29.5895 37.8178 29.8163 36.7879 29.8163C35.7504 29.8163 34.8193 29.5876 33.9946 29.1304C33.17 28.6731 32.5182 28.0112 32.0394 27.1446C31.5605 26.278 31.3211 25.2289 31.3211 23.9972C31.3211 22.7619 31.5605 21.7109 32.0394 20.8443C32.5182 19.9777 33.17 19.3177 33.9946 18.8641C34.8193 18.4068 35.7504 18.1782 36.7879 18.1782C37.8178 18.1782 38.7451 18.4068 39.5698 18.8641C40.3983 19.3177 41.0519 19.9777 41.5308 20.8443C42.0134 21.7109 42.2548 22.7619 42.2548 23.9972ZM39.7522 23.9972C39.7522 23.197 39.6287 22.5222 39.3817 21.9727C39.1385 21.4233 38.7945 21.0066 38.3499 20.7226C37.9052 20.4387 37.3846 20.2967 36.7879 20.2967C36.1913 20.2967 35.6706 20.4387 35.226 20.7226C34.7813 21.0066 34.4355 21.4233 34.1885 21.9727C33.9452 22.5222 33.8236 23.197 33.8236 23.9972C33.8236 24.7974 33.9452 25.4723 34.1885 26.0217C34.4355 26.5712 34.7813 26.9879 35.226 27.2718C35.6706 27.5558 36.1913 27.6977 36.7879 27.6977C37.3846 27.6977 37.9052 27.5558 38.3499 27.2718C38.7945 26.9879 39.1385 26.5712 39.3817 26.0217C39.6287 25.4723 39.7522 24.7974 39.7522 23.9972Z" fill="black"/>
    <path d="M51.2944 18.3331H53.7628V25.6898C53.7628 26.5159 53.5594 27.2386 53.1528 27.8582C52.75 28.4777 52.1856 28.9608 51.4597 29.3074C50.7339 29.6503 49.8883 29.8218 48.923 29.8218C47.9539 29.8218 47.1064 29.6503 46.3805 29.3074C45.6547 28.9608 45.0903 28.4777 44.6875 27.8582C44.2846 27.2386 44.0832 26.5159 44.0832 25.6898V18.3331H46.5516V25.4852C46.5516 25.9166 46.6485 26.3001 46.8423 26.6357C47.0399 26.9713 47.3173 27.235 47.6746 27.4267C48.0318 27.6185 48.4479 27.7143 48.923 27.7143C49.4018 27.7143 49.818 27.6185 50.1714 27.4267C50.5286 27.235 50.8042 26.9713 50.998 26.6357C51.1956 26.3001 51.2944 25.9166 51.2944 25.4852V18.3331Z" fill="black"/>
    <path d="M55.7936 29.6614V18.3331H60.3996C61.2813 18.3331 62.0338 18.4861 62.6571 18.7922C63.2841 19.0946 63.7611 19.5242 64.0879 20.081C64.4185 20.6341 64.5839 21.285 64.5839 22.0336C64.5839 22.7859 64.4166 23.433 64.0822 23.9751C63.7478 24.5135 63.2632 24.9265 62.6286 25.2141C61.9977 25.5018 61.2338 25.6456 60.3369 25.6456H57.2529V23.7207H59.9379C60.4091 23.7207 60.8006 23.658 61.1122 23.5326C61.4238 23.4072 61.6557 23.2191 61.8077 22.9684C61.9635 22.7176 62.0414 22.406 62.0414 22.0336C62.0414 21.6574 61.9635 21.3403 61.8077 21.0822C61.6557 20.824 61.4219 20.6286 61.1065 20.4959C60.7949 20.3594 60.4015 20.2912 59.9265 20.2912H58.2619V29.6614H55.7936ZM62.0984 24.5061L65 29.6614H62.2751L59.4363 24.5061H62.0984Z" fill="black"/>
    <path d="M70 29.8403V18.1597H72.4599V27.8042H77.4479V29.8403H70Z" fill="#FA5961"/>
    <path d="M89.3157 24C89.3157 25.2738 89.0752 26.3574 88.5942 27.251C88.117 28.1445 87.4655 28.827 86.6399 29.2985C85.818 29.7662 84.8939 30 83.8675 30C82.8336 30 81.9057 29.7643 81.0838 29.2928C80.2619 28.8213 79.6124 28.1388 79.1352 27.2452C78.658 26.3517 78.4194 25.27 78.4194 24C78.4194 22.7262 78.658 21.6426 79.1352 20.749C79.6124 19.8555 80.2619 19.1749 81.0838 18.7072C81.9057 18.2357 82.8336 18 83.8675 18C84.8939 18 85.818 18.2357 86.6399 18.7072C87.4655 19.1749 88.117 19.8555 88.5942 20.749C89.0752 21.6426 89.3157 22.7262 89.3157 24ZM86.8217 24C86.8217 23.1749 86.6986 22.4791 86.4524 21.9125C86.21 21.346 85.8673 20.9164 85.4241 20.6236C84.981 20.3308 84.4621 20.1844 83.8675 20.1844C83.2729 20.1844 82.754 20.3308 82.3109 20.6236C81.8678 20.9164 81.5231 21.346 81.277 21.9125C81.0346 22.4791 80.9134 23.1749 80.9134 24C80.9134 24.8251 81.0346 25.5209 81.277 26.0875C81.5231 26.654 81.8678 27.0836 82.3109 27.3764C82.754 27.6692 83.2729 27.8156 83.8675 27.8156C84.4621 27.8156 84.981 27.6692 85.4241 27.3764C85.8673 27.0836 86.21 26.654 86.4524 26.0875C86.6986 25.5209 86.8217 24.8251 86.8217 24Z" fill="#FA5961"/>
    <path d="M98.8528 21.9354C98.7733 21.6578 98.6615 21.4125 98.5176 21.1996C98.3737 20.9829 98.1976 20.8004 97.9893 20.6521C97.7848 20.5 97.5499 20.384 97.2848 20.3042C97.0235 20.2243 96.7338 20.1844 96.4156 20.1844C95.821 20.1844 95.2983 20.3327 94.8476 20.6293C94.4007 20.9259 94.0523 21.3574 93.8023 21.924C93.5524 22.4867 93.4274 23.1749 93.4274 23.9886C93.4274 24.8023 93.5505 25.4943 93.7966 26.0646C94.0428 26.635 94.3913 27.0703 94.842 27.3707C95.2927 27.6673 95.8248 27.8156 96.4383 27.8156C96.9951 27.8156 97.4704 27.7167 97.8643 27.519C98.262 27.3175 98.565 27.0342 98.7733 26.6692C98.9854 26.3042 99.0914 25.8726 99.0914 25.3745L99.5913 25.4487H96.5917V23.5894H101.46V25.0608C101.46 26.0875 101.245 26.9696 100.813 27.7072C100.381 28.4411 99.7864 29.0076 99.0289 29.4068C98.2714 29.8023 97.4041 30 96.427 30C95.3362 30 94.378 29.7586 93.5524 29.2757C92.7267 28.789 92.0828 28.0989 91.6208 27.2053C91.1625 26.308 90.9334 25.2433 90.9334 24.0114C90.9334 23.0646 91.0697 22.2205 91.3424 21.4791C91.6189 20.7338 92.0052 20.1027 92.5014 19.5856C92.9975 19.0684 93.5751 18.6749 94.2341 18.4049C94.8931 18.135 95.607 18 96.3759 18C97.0349 18 97.6484 18.097 98.2165 18.2909C98.7846 18.481 99.2884 18.751 99.7277 19.1008C100.171 19.4506 100.533 19.8669 100.813 20.3498C101.093 20.8289 101.273 21.3574 101.352 21.9354H98.8528Z" fill="#FA5961"/>
    <path d="M114 24C114 25.2738 113.76 26.3574 113.279 27.251C112.801 28.1445 112.15 28.827 111.324 29.2985C110.502 29.7662 109.578 30 108.552 30C107.518 30 106.59 29.7643 105.768 29.2928C104.946 28.8213 104.297 28.1388 103.819 27.2452C103.342 26.3517 103.104 25.27 103.104 24C103.104 22.7262 103.342 21.6426 103.819 20.749C104.297 19.8555 104.946 19.1749 105.768 18.7072C106.59 18.2357 107.518 18 108.552 18C109.578 18 110.502 18.2357 111.324 18.7072C112.15 19.1749 112.801 19.8555 113.279 20.749C113.76 21.6426 114 22.7262 114 24ZM111.506 24C111.506 23.1749 111.383 22.4791 111.137 21.9125C110.894 21.346 110.552 20.9164 110.108 20.6236C109.665 20.3308 109.146 20.1844 108.552 20.1844C107.957 20.1844 107.438 20.3308 106.995 20.6236C106.552 20.9164 106.207 21.346 105.961 21.9125C105.719 22.4791 105.598 23.1749 105.598 24C105.598 24.8251 105.719 25.5209 105.961 26.0875C106.207 26.654 106.552 27.0836 106.995 27.3764C107.438 27.6692 107.957 27.8156 108.552 27.8156C109.146 27.8156 109.665 27.6692 110.108 27.3764C110.552 27.0836 110.894 26.654 111.137 26.0875C111.383 25.5209 111.506 24.8251 111.506 24Z" fill="#FA5961"/>
    <path d="M124 17V31H120V29.2355H121.911V18.759H120V17H124Z" fill="black"/>
</svg>